<?xml version="1.0" encoding="UTF-8" standalone="no"?>
<svg
   xmlns:dc="http://purl.org/dc/elements/1.1/"
   xmlns:cc="http://creativecommons.org/ns#"
   xmlns:rdf="http://www.w3.org/1999/02/22-rdf-syntax-ns#"
   xmlns:svg="http://www.w3.org/2000/svg"
   xmlns="http://www.w3.org/2000/svg"
   xmlns:sodipodi="http://sodipodi.sourceforge.net/DTD/sodipodi-0.dtd"
   xmlns:inkscape="http://www.inkscape.org/namespaces/inkscape"
   stroke-width="0.501"
   stroke-linejoin="bevel"
   fill-rule="evenodd"
   version="1.1"
   overflow="visible"
   viewBox="0 0 75 93.75"
   x="0px"
   y="0px"
   id="svg3753"
   sodipodi:docname="thumbsUp.svg"
   inkscape:version="0.92.3 (2405546, 2018-03-11)">
  <metadata
     id="metadata3759">
    <rdf:RDF>
      <cc:Work
         rdf:about="">
        <dc:format>image/svg+xml</dc:format>
        <dc:type
           rdf:resource="http://purl.org/dc/dcmitype/StillImage" />
        <dc:title></dc:title>
      </cc:Work>
    </rdf:RDF>
  </metadata>
  <defs
     id="defs3757" />
  <sodipodi:namedview
     pagecolor="#ffffff"
     bordercolor="#666666"
     borderopacity="1"
     objecttolerance="10"
     gridtolerance="10"
     guidetolerance="10"
     inkscape:pageopacity="0"
     inkscape:pageshadow="2"
     inkscape:window-width="1600"
     inkscape:window-height="837"
     id="namedview3755"
     showgrid="false"
     inkscape:zoom="7.1466667"
     inkscape:cx="37.5"
     inkscape:cy="46.875"
     inkscape:window-x="-8"
     inkscape:window-y="-8"
     inkscape:window-maximized="1"
     inkscape:current-layer="svg3753" />
  <g
     font-size="16"
     transform="matrix(1,0,0,-1,0.13992537,4.0578358)"
     id="g3747"
     style="font-size:16px;font-family:'Times New Roman';fill:none;stroke:#000000">
    <g
       transform="translate(0,-75)"
       id="g3745">
      <g
         id="g3743">
        <path
           d="m 41.423,-26.399 c -0.271,0 -0.541,0 -0.812,0"
           stroke-miterlimit="79.8403193612775"
           id="path3737"
           inkscape:connector-curvature="0"
           style="fill:none;stroke-width:1.5;stroke-linecap:round;stroke-linejoin:round;stroke-miterlimit:79.84031677" />
        <path
           d="m 36.376,-25.335 0.75,-0.75"
           stroke-miterlimit="79.8403193612775"
           id="path3739"
           inkscape:connector-curvature="0"
           style="fill:none;stroke-width:1.5;stroke-linecap:round;stroke-linejoin:round;stroke-miterlimit:79.84031677" />
        <path
           d="M 33.248,0.622 C 33.226,0.681 33.227,0.743 33.247,0.798 32.937,0.815 32.629,0.847 32.321,0.88 32.136,0.874 31.951,0.868 31.766,0.863 31.188,0.846 30.606,0.859 30.025,0.88 30.032,0.849 30.034,0.816 30.031,0.783 30.013,0.615 29.86,0.494 29.692,0.512 c -2.604,0.124 -5.149,0.573 -7.706,1.053 -0.537,0.1 -1.078,0.201 -1.615,0.308 -0.987,0.044 -1.968,0.109 -2.95,0.277 -0.865,0.148 -1.704,0.318 -2.554,0.536 -0.789,0.203 -1.561,0.451 -2.334,0.709 l -0.748,0.278 -0.51,0.103 C 10.877,3.858 10.478,3.936 10.079,4.017 9.73,4.088 9.377,4.146 9.033,4.237 8.704,4.324 8.375,4.41 8.045,4.495 L 7.999,4.475 C 7.844,4.445 7.685,4.493 7.552,4.571 7.504,4.599 7.456,4.627 7.407,4.658 6.793,4.812 6.176,4.962 5.559,5.103 5.479,5.12 5.428,5.201 5.445,5.281 5.462,5.361 5.543,5.412 5.623,5.395 5.971,5.318 6.32,5.244 6.67,5.174 6.551,5.275 6.435,5.379 6.322,5.481 5.923,5.841 5.548,6.205 5.176,6.593 5.053,6.721 4.941,6.86 4.823,6.992 4.724,7.102 4.658,7.204 4.578,7.327 4.417,7.574 4.285,7.801 4.139,8.053 4.022,8.255 3.926,8.476 3.829,8.688 c -0.37,0.809 -0.551,1.757 -0.412,2.641 0.079,0.501 0.241,0.876 0.466,1.324 0.089,0.173 0.289,0.253 0.47,0.201 0.114,0.135 0.239,0.262 0.368,0.38 C 4.37,13.577 4.03,13.917 3.706,14.297 3.405,14.648 3.103,15.038 2.821,15.455 2.659,15.597 2.5,15.757 2.394,15.898 2.322,15.993 2.229,16.09 2.166,16.189 1.93,16.56 1.725,16.914 1.603,17.342 c -0.067,0.236 -0.134,0.474 -0.161,0.719 -0.029,0.254 -0.04,0.504 -0.036,0.749 -0.01,0.075 -0.018,0.15 -0.024,0.225 -0.035,0.409 -0.061,0.771 -0.017,1.183 0.052,0.493 0.198,0.886 0.37,1.343 0.007,0.032 0.021,0.061 0.039,0.087 -0.005,0.238 -0.001,0.476 0.033,0.713 0.055,0.386 0.127,0.704 0.247,1.075 0.148,0.458 0.448,0.956 0.817,1.354 -0.183,0.209 -0.352,0.431 -0.519,0.651 -0.214,0.281 -0.414,0.601 -0.575,0.916 -0.846,1.655 -1.031,3.4 -0.397,5.16 0.122,0.339 0.317,0.753 0.519,1.052 0.126,0.187 0.256,0.372 0.395,0.55 l 10e-4,0.002 c 0.058,0.105 0.116,0.212 0.178,0.315 0.06,0.1 0.135,0.195 0.194,0.295 0.093,0.141 0.254,0.211 0.412,0.198 0.047,0.042 0.095,0.083 0.145,0.119 0.087,0.062 0.17,0.133 0.257,0.193 0.093,0.065 0.193,0.122 0.287,0.186 0.05,0.034 0.102,0.063 0.156,0.092 -0.023,0.039 -0.045,0.079 -0.066,0.12 -0.08,0.01 -0.16,0.02 -0.24,0.031 -0.101,0.012 -0.173,0.106 -0.161,0.207 0.012,0.101 0.106,0.173 0.207,0.161 0.005,-10e-4 0.011,-0.002 0.017,-0.002 -0.086,0.158 -0.15,0.334 -0.201,0.497 -0.459,1.444 -0.458,2.961 0.231,4.337 0.338,0.674 0.779,1.161 1.361,1.609 0.081,0.125 0.166,0.261 0.258,0.377 0.029,0.036 0.058,0.073 0.087,0.11 -0.176,-0.067 -0.378,0.016 -0.455,0.191 -0.08,0.181 0.002,0.395 0.183,0.475 0.307,0.137 0.621,0.317 0.93,0.437 0.782,0.304 1.552,0.587 2.36,0.816 0.948,0.268 1.875,0.447 2.849,0.598 0.714,0.111 1.448,0.171 2.169,0.223 1.652,0.119 3.313,0.138 4.965,0.255 0.27,0.083 0.546,0.159 0.817,0.236 0.484,0.137 0.973,0.25 1.459,0.377 0.475,0.124 0.963,0.211 1.442,0.314 0.947,0.204 1.928,0.345 2.907,0.428 -0.004,0.002 -0.009,0.004 -0.012,0.006 -0.139,0.062 -0.279,0.134 -0.42,0.192 -0.141,0.058 -0.289,0.104 -0.429,0.165 l 0.018,0.05 c 0.144,-0.062 0.297,-0.111 0.443,-0.169 0.128,-0.051 0.266,-0.117 0.392,-0.175 0.041,-0.02 0.082,-0.039 0.124,-0.059 0.45,0.036 0.899,0.06 1.344,0.072 1.115,0.029 2.302,-0.059 3.403,-0.349 0.023,0.091 0.073,0.172 0.139,0.235 -0.044,0.169 -0.09,0.338 -0.135,0.507 -0.218,0.804 -0.477,1.601 -0.721,2.398 -0.256,0.835 -0.544,1.662 -0.806,2.495 -0.366,1.167 -0.744,2.331 -1.113,3.497 -0.132,0.418 -0.251,0.842 -0.372,1.264 -0.084,0.292 -0.173,0.585 -0.248,0.88 -0.061,0.238 -0.122,0.479 -0.187,0.716 -0.072,0.257 -0.138,0.525 -0.2,0.795 l -0.062,0.296 -0.376,0.836 c -0.3,0.648 -0.608,1.313 -0.944,1.942 -0.146,0.273 -0.245,0.566 -0.381,0.845 -0.082,0.16 -0.018,0.358 0.142,0.44 0.16,0.082 0.358,0.018 0.44,-0.142 0.12,-0.23 0.282,-0.447 0.393,-0.674 l 0.018,-0.038 -0.008,0.018 c -0.008,0.035 -0.011,0.071 -0.008,0.109 0.012,0.187 0.027,0.374 0.069,0.552 0,0.009 -10e-4,0.022 -10e-4,0.034 -0.039,0.154 -0.085,0.308 -0.136,0.468 -0.066,0.201 -0.183,0.449 -0.192,0.657 -0.023,0.248 0.151,0.472 0.394,0.513 0.06,0.664 0.186,1.334 0.361,1.984 l 0.186,0.646 c -0.014,0.044 -0.009,0.083 0.011,0.117 l 0.111,0.218 0.229,0.614 c 0.103,0.253 0.213,0.499 0.328,0.735 0.446,0.917 0.964,1.837 1.614,2.628 0.544,0.662 1.135,1.312 1.846,1.801 0.298,0.205 0.595,0.418 0.923,0.573 1.398,0.66 2.769,0.751 4.192,0.098 0.134,-0.062 0.346,-0.168 0.545,-0.286 l 0.283,-0.183 0.194,-0.173 c 0.018,-0.022 0.019,-0.053 0.033,-0.077 0.048,-0.085 0.071,-0.226 0.056,-0.323 -0.003,-0.02 -0.048,-0.135 -0.058,-0.158 -0.043,-0.096 -0.133,-0.188 -0.23,-0.231 -0.033,-0.015 -0.079,-0.044 -0.112,-0.055 -0.026,-0.009 -0.094,-0.005 -0.125,-0.01 -0.083,-0.014 -0.166,0.007 -0.246,0.042 l -0.081,0.041 -0.146,0.077 c -0.111,0.056 -0.223,0.094 -0.34,0.137 -0.09,0.032 -0.183,0.07 -0.276,0.103 -0.057,-0.031 -0.12,-0.051 -0.188,-0.055 -0.138,-0.014 -0.278,-0.017 -0.417,-0.027 -0.361,-0.026 -0.734,-0.108 -1.085,-0.192 -0.124,-0.03 -0.254,-0.06 -0.374,-0.101 -0.13,-0.045 -0.264,-0.078 -0.393,-0.127 -0.521,-0.199 -1.032,-0.42 -1.524,-0.684 -0.188,-0.101 -0.401,-0.217 -0.577,-0.337 -0.055,-0.037 -0.108,-0.074 -0.162,-0.11 -0.207,-0.175 -0.406,-0.351 -0.595,-0.523 -0.29,-0.263 -0.578,-0.55 -0.853,-0.83 -0.093,-0.095 -0.185,-0.191 -0.276,-0.287 -0.007,-0.045 -0.02,-0.091 -0.034,-0.136 L 28.42,69.569 28.407,69.543 28.355,69.418 c -0.027,-0.06 -0.056,-0.117 -0.081,-0.171 -0.214,-0.461 -0.393,-0.957 -0.56,-1.437 -0.227,-0.654 -0.412,-1.348 -0.581,-2.02 -0.218,-0.86 -0.406,-1.684 -0.496,-2.552 0.008,-0.313 0.03,-0.636 0.058,-0.946 0.092,-1.024 0.293,-2.016 0.507,-3.02 l 0.206,-0.844 c 0.124,-0.28 0.262,-0.555 0.385,-0.836 0.308,-0.703 0.61,-1.403 0.903,-2.113 0.911,-2.203 1.607,-4.488 2.128,-6.812 0.189,-0.846 0.358,-1.724 0.478,-2.593 0.13,-0.074 0.219,-0.214 0.219,-0.374 0.013,-0.103 0.035,-0.206 0.043,-0.309 0.018,-0.224 0.001,-0.455 0.01,-0.681 0.018,-0.456 0.031,-0.912 0.051,-1.369 0.016,-0.371 0.041,-0.739 0.072,-1.107 0.027,-0.036 0.053,-0.077 0.084,-0.129 0.018,-0.033 0.016,-0.071 -0.026,-0.093 0.029,-0.743 0.124,-1.504 0.22,-2.268 0.232,-0.184 0.464,-0.366 0.697,-0.547 0.257,-0.201 0.524,-0.407 0.772,-0.618 0.118,-0.1 0.242,-0.196 0.359,-0.298 0.179,-0.156 0.35,-0.321 0.529,-0.476 0.055,-0.05 0.06,-0.137 0.01,-0.192 -0.05,-0.055 -0.137,-0.06 -0.192,-0.01 -0.323,0.282 -0.639,0.574 -0.96,0.858 -0.208,0.184 -0.424,0.361 -0.635,0.542 -0.181,0.154 -0.362,0.308 -0.543,0.461 0.132,-0.964 0.333,-1.934 0.532,-2.891 0.055,-0.044 0.109,-0.087 0.164,-0.131 0.754,-0.614 1.499,-1.237 2.25,-1.855 0.201,-0.165 0.388,-0.348 0.588,-0.513 0.066,-0.057 0.072,-0.159 0.015,-0.225 -0.057,-0.066 -0.159,-0.072 -0.225,-0.015 -0.362,0.298 -0.703,0.636 -1.048,0.956 -0.318,0.295 -0.64,0.586 -0.959,0.88 -0.239,0.219 -0.483,0.435 -0.731,0.646 0.021,-0.102 0.042,-0.205 0.064,-0.306 0.103,-0.499 0.227,-1.011 0.362,-1.503 0.163,-0.593 0.324,-1.185 0.518,-1.769 0.619,-1.863 1.402,-3.721 2.445,-5.404 0.769,-1.025 1.61,-1.949 2.571,-2.805 0.236,-0.211 0.453,-0.442 0.691,-0.652 0.423,-0.373 0.864,-0.722 1.354,-1.005 0.056,-0.034 0.074,-0.108 0.04,-0.164 -0.021,-0.033 -0.054,-0.053 -0.089,-0.057 0.051,-0.029 0.101,-0.059 0.152,-0.088 0.308,-0.182 0.673,-0.376 1,-0.521 0.335,-0.149 0.66,-0.315 1.003,-0.449 0.866,-0.338 1.778,-0.625 2.688,-0.818 0.177,-0.03 0.295,-0.2 0.265,-0.377 -0.03,-0.177 -0.2,-0.295 -0.377,-0.265 -0.384,0.049 -0.758,0.099 -1.134,0.197 -0.906,0.236 -1.798,0.588 -2.643,0.989 -0.916,0.435 -1.817,0.982 -2.637,1.579 -0.423,0.308 -0.839,0.62 -1.22,0.98 -0.416,0.393 -0.799,0.848 -1.159,1.293 -0.555,0.686 -0.995,1.429 -1.362,2.23 -0.062,0.135 -0.124,0.282 -0.177,0.429 -0.826,1.162 -1.578,2.414 -2.206,3.693 -0.243,0.495 -0.492,0.995 -0.707,1.503 -0.262,0.619 -0.51,1.226 -0.749,1.854 -0.202,0.532 -0.381,1.073 -0.556,1.615 -0.104,0.322 -0.208,0.645 -0.298,0.971 -0.013,0.044 -0.025,0.088 -0.037,0.133 0.101,-0.075 0.08,-0.166 0.022,-0.237 -0.105,-0.127 -0.296,-0.144 -0.423,-0.039 -0.149,0.121 -0.288,0.256 -0.436,0.378 -0.311,0.255 -0.631,0.504 -0.958,0.739 -0.013,-0.277 -0.035,-0.556 -0.06,-0.824 -0.002,-0.013 -0.003,-0.026 -0.004,-0.038 0.05,-0.539 0.056,-1.081 0.019,-1.611 0.766,-0.422 1.54,-0.829 2.34,-1.183 0.126,-0.06 0.181,-0.213 0.121,-0.339 -0.06,-0.126 -0.213,-0.181 -0.339,-0.121 -0.133,0.057 -0.268,0.134 -0.399,0.198 -0.391,0.192 -0.771,0.41 -1.151,0.624 -0.207,0.116 -0.413,0.234 -0.617,0.354 -0.015,-0.116 -0.031,-0.231 -0.049,-0.345 -0.068,-0.416 -0.178,-0.851 -0.329,-1.269 0.899,-0.496 1.8,-0.988 2.711,-1.465 0.581,-0.305 1.141,-0.635 1.715,-0.952 0.118,-0.067 0.16,-0.219 0.093,-0.337 -0.067,-0.118 -0.219,-0.16 -0.337,-0.093 -0.407,0.236 -0.823,0.46 -1.226,0.704 -1.025,0.619 -2.042,1.247 -3.059,1.878 -0.114,-0.275 -0.247,-0.539 -0.399,-0.779 -0.017,-0.027 -0.034,-0.053 -0.052,-0.075 0.336,-0.275 0.573,-0.629 0.78,-0.983 0.101,-0.173 0.192,-0.351 0.287,-0.527 0.135,-0.249 0.264,-0.536 0.369,-0.799 0.007,-0.02 0.016,-0.04 0.024,-0.06 0.039,-0.021 0.077,-0.042 0.116,-0.063 0.57,-0.314 1.14,-0.624 1.731,-0.897 0.212,-0.098 0.427,-0.193 0.641,-0.286 0.161,-0.07 0.321,-0.132 0.477,-0.214 0.264,-0.139 0.509,-0.297 0.767,-0.443 0.05,-0.018 0.075,-0.075 0.057,-0.125 -0.018,-0.05 -0.075,-0.075 -0.125,-0.057 -0.282,0.042 -0.573,0.087 -0.845,0.172 -0.309,0.096 -0.599,0.239 -0.891,0.377 -0.567,0.268 -1.137,0.566 -1.682,0.882 0.003,-0.01 0.006,-0.02 0.01,-0.029 0.15,-0.479 0.306,-0.991 0.372,-1.489 0.026,-0.201 0.046,-0.395 0.062,-0.591 0.3,-0.179 0.606,-0.35 0.914,-0.513 0.354,-0.188 0.762,-0.37 1.14,-0.511 0.235,-0.088 0.48,-0.177 0.708,-0.281 0.097,-0.029 0.151,-0.133 0.122,-0.23 -0.029,-0.097 -0.133,-0.151 -0.23,-0.122 -0.426,0.048 -0.988,0.283 -1.375,0.472 -0.178,0.087 -0.362,0.168 -0.537,0.261 -0.242,0.127 -0.478,0.258 -0.712,0.393 0.007,-0.419 -0.031,-0.895 -0.115,-1.318 0.37,-0.204 0.743,-0.398 1.114,-0.601 0.31,-0.17 0.644,-0.331 0.964,-0.483 0.66,-0.315 1.328,-0.615 2.002,-0.899 0.109,-0.048 0.16,-0.177 0.112,-0.286 -0.048,-0.109 -0.177,-0.16 -0.286,-0.112 -1.366,0.581 -2.688,1.313 -3.972,2.096 -0.007,-0.028 -0.015,-0.057 -0.023,-0.084 -0.036,-0.123 -0.078,-0.274 -0.126,-0.391 -0.042,-0.102 -0.09,-0.206 -0.128,-0.309 -0.026,-0.072 -0.079,-0.157 -0.116,-0.226 -0.096,-0.179 -0.197,-0.332 -0.313,-0.498 -0.036,-0.052 -0.08,-0.094 -0.119,-0.142 -0.01,-0.012 -0.019,-0.023 -0.029,-0.034 -0.001,-0.004 -0.003,-0.008 -0.004,-0.012 0.601,-0.392 1.205,-0.78 1.818,-1.152 0.435,-0.265 0.878,-0.516 1.324,-0.762 0.166,-0.092 0.338,-0.172 0.504,-0.263 0.442,-0.24 0.905,-0.457 1.369,-0.653 0.121,-0.054 0.177,-0.198 0.123,-0.319 -0.054,-0.121 -0.198,-0.177 -0.319,-0.123 -0.214,0.096 -0.431,0.188 -0.643,0.288 -0.194,0.091 -0.385,0.194 -0.578,0.289 -0.343,0.17 -0.682,0.385 -1.009,0.585 -0.419,0.256 -0.841,0.525 -1.244,0.804 -0.491,0.339 -0.981,0.682 -1.472,1.023 -0.075,-0.156 -0.157,-0.309 -0.247,-0.458 0.012,-0.029 0.024,-0.057 0.036,-0.085 0.084,-0.061 0.168,-0.131 0.252,-0.193 0.083,-0.064 0.201,-0.183 0.291,-0.284 0.015,0 0.031,0 0.047,0.001 0.22,0.008 0.406,-0.164 0.414,-0.384 0.002,-0.059 -0.009,-0.116 -0.03,-0.167 0.016,-0.024 0.031,-0.048 0.047,-0.072 0.128,-0.208 0.261,-0.434 0.361,-0.657 0.088,-0.197 0.157,-0.389 0.233,-0.59 0.098,-0.26 0.162,-0.527 0.211,-0.797 0.039,-0.021 0.078,-0.042 0.118,-0.062 0.42,-0.225 0.852,-0.431 1.283,-0.634 0.343,-0.162 0.703,-0.296 1.044,-0.459 0.102,-0.049 0.203,-0.101 0.306,-0.148 0.098,-0.039 0.146,-0.153 0.107,-0.251 -0.039,-0.098 -0.153,-0.146 -0.251,-0.107 -0.86,0.274 -1.705,0.675 -2.519,1.107 0.009,-0.067 0.019,-0.133 0.029,-0.199 0.018,-0.124 0.013,-0.264 0.024,-0.39 0.016,-0.182 0.009,-0.401 10e-4,-0.584 -0.003,-0.073 -0.004,-0.15 -0.008,-0.226 0.232,-0.125 0.465,-0.248 0.7,-0.369 0.77,-0.4 1.558,-0.786 2.358,-1.122 0.242,-0.102 0.483,-0.202 0.727,-0.299 0.153,-0.06 0.31,-0.114 0.456,-0.189 0.156,-0.08 0.3,-0.196 0.44,-0.301 0.054,-0.019 0.082,-0.081 0.063,-0.135 -0.019,-0.054 -0.081,-0.082 -0.135,-0.063 -0.171,0.003 -0.348,0.012 -0.516,0.046 -0.211,0.043 -0.407,0.133 -0.606,0.214 -0.204,0.083 -0.409,0.164 -0.61,0.256 -0.602,0.276 -1.207,0.549 -1.788,0.869 -0.323,0.178 -0.649,0.349 -0.97,0.532 -0.055,0.031 -0.11,0.062 -0.165,0.093 -0.051,-0.373 -0.124,-0.759 -0.232,-1.118 -0.096,-0.314 -0.209,-0.615 -0.342,-0.903 0.447,-0.231 0.897,-0.457 1.353,-0.675 0.721,-0.347 1.44,-0.697 2.185,-0.993 0.094,-0.04 0.139,-0.151 0.099,-0.245 -0.04,-0.094 -0.151,-0.139 -0.245,-0.099 -0.848,0.375 -1.679,0.733 -2.502,1.164 -0.347,0.18 -0.691,0.368 -1.032,0.561 -0.149,-0.279 -0.319,-0.544 -0.515,-0.791 -0.112,-0.189 -0.237,-0.371 -0.377,-0.544 -0.09,-0.112 -0.184,-0.219 -0.283,-0.323 0.594,-0.377 1.193,-0.745 1.802,-1.096 1.066,-0.616 2.124,-1.212 3.235,-1.743 0.113,-0.057 0.158,-0.198 0.101,-0.311 -0.057,-0.113 -0.198,-0.158 -0.311,-0.101 -0.965,0.49 -1.883,1.034 -2.811,1.589 -0.33,0.197 -0.66,0.399 -0.982,0.609 -0.042,0.026 -0.083,0.053 -0.124,0.08 -0.014,-0.16 -0.144,-0.291 -0.308,-0.301 -0.192,-0.024 -0.383,-0.047 -0.576,-0.069 0.106,-0.202 0.2,-0.411 0.277,-0.626 0.062,-0.173 0.133,-0.346 0.176,-0.526 0.02,-0.086 0.039,-0.172 0.056,-0.259 1.096,-0.765 2.24,-1.478 3.449,-2.024 0.119,-0.056 0.171,-0.2 0.115,-0.319 C 32.452,8.233 32.308,8.181 32.189,8.237 31.705,8.443 31.215,8.717 30.757,8.976 30.178,9.302 29.603,9.67 29.044,10.06 29.1,9.551 29.102,9.03 29.031,8.531 29.339,8.293 29.648,8.058 29.964,7.835 30.186,7.677 30.414,7.529 30.639,7.377 31.025,7.117 31.407,6.889 31.815,6.665 32.052,6.535 32.302,6.405 32.553,6.303 32.69,6.242 32.751,6.079 32.69,5.942 32.629,5.805 32.466,5.744 32.329,5.805 31.89,5.989 31.439,6.23 31.035,6.48 30.555,6.777 30.111,7.078 29.658,7.416 29.41,7.6 29.167,7.79 28.926,7.982 28.889,7.821 28.849,7.663 28.802,7.495 28.721,7.205 28.583,6.852 28.445,6.584 28.347,6.394 28.249,6.22 28.143,6.047 29.014,5.385 29.906,4.747 30.839,4.186 31.556,3.754 32.357,3.292 33.142,2.991 33.272,2.936 33.333,2.783 33.278,2.653 33.223,2.523 33.07,2.462 32.94,2.517 32.004,2.908 31.103,3.396 30.257,3.959 29.463,4.486 28.713,5.06 27.972,5.65 27.898,5.458 27.818,5.27 27.718,5.09 27.594,4.867 27.468,4.647 27.317,4.44 27.266,4.37 27.214,4.303 27.162,4.238 27.535,3.989 27.91,3.742 28.277,3.486 28.878,3.064 29.452,2.638 30.035,2.192 30.069,2.165 30.094,2.131 30.109,2.094 30.351,2.071 30.594,2.048 30.837,2.026 31.251,1.988 31.669,1.961 32.08,1.897 c 0.181,-0.029 0.362,-0.063 0.542,-0.1 0.201,0.008 0.402,0.018 0.603,0.029 0.862,0.139 1.721,0.301 2.586,0.481 0.814,0.168 1.649,0.355 2.452,0.569 0.901,0.24 1.802,0.472 2.697,0.733 1.173,0.342 2.337,0.703 3.505,1.061 1.194,0.366 2.396,0.718 3.594,1.072 0.639,0.188 1.282,0.37 1.926,0.544 0.214,0.113 0.424,0.229 0.629,0.345 0.024,0.014 0.049,0.028 0.074,0.041 0.006,0.013 0.014,0.025 0.023,0.036 0.537,0.677 1.081,1.343 1.638,2.003 0.068,0.081 0.136,0.163 0.203,0.245 -0.007,0.001 -0.015,0.002 -0.022,0.003 -0.052,0.006 -0.09,0.054 -0.084,0.106 0.006,0.052 0.054,0.09 0.106,0.084 0.047,-0.007 0.095,-0.013 0.143,-0.019 0.175,0.217 0.347,0.435 0.521,0.654 0.213,0.269 0.437,0.557 0.63,0.84 0.15,0.22 0.302,0.441 0.449,0.665 -0.003,0.035 -0.005,0.07 -0.007,0.104 -0.009,0.003 -0.018,0.006 -0.027,0.01 -0.24,0.088 -0.466,0.206 -0.697,0.314 -0.254,0.119 -0.517,0.272 -0.756,0.418 -0.502,0.307 -0.975,0.625 -1.459,0.961 -0.765,0.531 -1.523,1.049 -2.326,1.517 -0.155,0.09 -0.305,0.189 -0.462,0.278 -0.134,0.076 -0.279,0.142 -0.418,0.21 -0.056,0.026 -0.081,0.095 -0.055,0.151 0.026,0.056 0.095,0.081 0.151,0.055 0.294,-0.143 0.597,-0.268 0.892,-0.412 0.227,-0.111 0.504,-0.283 0.716,-0.424 0.571,-0.38 1.149,-0.751 1.72,-1.131 0.834,-0.557 1.747,-1.127 2.695,-1.479 -0.029,0.548 -0.053,1.097 -0.061,1.648 -0.003,0.158 -0.006,0.316 -0.009,0.475 -2.218,1.21 -4.368,2.411 -6.331,4.033 -0.02,0.016 -0.023,0.047 -0.007,0.067 0.016,0.02 0.047,0.023 0.067,0.007 0.595,-0.482 1.205,-0.954 1.853,-1.364 0.621,-0.392 1.233,-0.761 1.877,-1.115 0.712,-0.392 1.443,-0.747 2.173,-1.105 0.12,-0.06 0.241,-0.118 0.361,-0.177 -0.01,0.511 -0.019,1.021 -0.024,1.533 -0.412,0.25 -0.826,0.495 -1.234,0.753 -1.042,0.655 -2.051,1.373 -3.06,2.078 -0.409,0.286 -0.817,0.575 -1.224,0.864 -0.25,0.177 -0.513,0.348 -0.753,0.538 -0.37,0.293 -0.746,0.569 -1.127,0.846 -0.061,0.043 -0.077,0.129 -0.034,0.19 0.043,0.061 0.129,0.077 0.19,0.034 0.401,-0.294 0.832,-0.551 1.249,-0.822 0.175,-0.114 0.345,-0.241 0.516,-0.361 1.793,-1.255 3.571,-2.492 5.474,-3.57 -0.002,0.464 -0.002,0.927 0,1.39 -0.156,0.241 -0.309,0.483 -0.457,0.729 -0.599,0.323 -1.171,0.665 -1.756,1.029 -0.465,0.289 -0.92,0.632 -1.368,0.948 -0.92,0.648 -1.814,1.338 -2.735,1.984 -0.378,0.265 -0.756,0.534 -1.14,0.79 -0.421,0.281 -0.85,0.542 -1.278,0.812 -0.06,0.036 -0.078,0.116 -0.042,0.176 0.036,0.06 0.116,0.078 0.176,0.042 0.218,-0.141 0.447,-0.27 0.667,-0.408 0.42,-0.263 0.838,-0.539 1.25,-0.815 0.992,-0.664 1.969,-1.351 2.962,-2.016 0.31,-0.208 0.623,-0.421 0.939,-0.62 0.314,-0.198 0.634,-0.39 0.945,-0.591 0.585,-0.379 1.215,-0.742 1.844,-1.061 0.007,0.796 0.018,1.591 0.033,2.387 -0.021,0.027 -0.042,0.055 -0.062,0.083 -0.003,0.001 -0.006,0.003 -0.008,0.005 -0.215,0.119 -0.437,0.228 -0.646,0.357 -0.528,0.326 -1.067,0.634 -1.587,0.974 -1.35,0.883 -2.698,1.783 -4.008,2.724 -0.562,0.404 -1.14,0.787 -1.703,1.19 -0.045,0.031 -0.056,0.094 -0.025,0.139 0.031,0.045 0.094,0.056 0.139,0.025 0.43,-0.31 0.876,-0.609 1.315,-0.906 0.53,-0.358 1.055,-0.719 1.592,-1.066 1.425,-0.919 2.847,-1.819 4.347,-2.611 0.219,-0.116 0.438,-0.233 0.656,-0.349 0.015,0.783 0.033,1.566 0.051,2.349 -0.64,0.308 -1.259,0.663 -1.867,1.041 -1.78,1.103 -3.444,2.434 -5.127,3.675 l -0.009,0.061 0.061,0.009 c 1.88,-1.39 3.769,-2.773 5.853,-3.841 0.359,-0.185 0.727,-0.355 1.099,-0.513 0.008,0.359 0.016,0.718 0.025,1.077 0.013,0.593 0.026,1.185 0.036,1.776 -0.353,0.21 -0.699,0.432 -1.043,0.649 -0.278,0.175 -0.561,0.367 -0.83,0.556 -0.824,0.579 -1.653,1.168 -2.489,1.729 -0.696,0.467 -1.386,0.903 -2.107,1.33 -0.028,0.016 -0.038,0.054 -0.022,0.082 0.016,0.028 0.054,0.038 0.082,0.022 0.675,-0.407 1.348,-0.8 2.008,-1.233 1.458,-0.958 2.886,-1.923 4.408,-2.727 0.011,0.756 0.019,1.511 0.021,2.267 -0.189,0.108 -0.378,0.217 -0.565,0.329 -0.513,0.303 -1.033,0.595 -1.538,0.91 -1.315,0.819 -2.618,1.749 -3.698,2.866 -0.047,0.046 -0.048,0.123 -0.002,0.17 0.046,0.047 0.123,0.048 0.17,0.002 1.181,-1.223 2.562,-2.111 4.014,-2.972 0.35,-0.207 0.721,-0.396 1.078,-0.592 0.179,-0.099 0.36,-0.196 0.542,-0.292 0,0.648 -0.005,1.296 -0.016,1.945 -0.45,0.25 -0.894,0.512 -1.337,0.776 -1.106,0.656 -2.192,1.4 -3.226,2.164 -0.046,0.033 -0.057,0.1 -0.024,0.146 0.033,0.046 0.1,0.057 0.146,0.024 1.311,-0.984 2.744,-1.858 4.196,-2.615 0.079,-0.042 0.158,-0.083 0.238,-0.123 -0.004,0.218 -0.01,0.436 -0.015,0.655 -0.015,0.543 -0.043,1.091 -0.076,1.633 -0.006,0.084 -0.009,0.17 -0.013,0.255 -0.016,0.01 -0.031,0.019 -0.046,0.029 -0.371,0.224 -0.745,0.444 -1.119,0.663 -0.408,0.239 -0.8,0.505 -1.198,0.759 -0.307,0.197 -0.627,0.419 -0.912,0.648 -0.061,0.046 -0.073,0.134 -0.027,0.195 0.046,0.061 0.134,0.073 0.195,0.027 0.955,-0.737 2.02,-1.312 3.081,-1.886 -0.002,0.017 -0.004,0.034 -0.005,0.051 -0.022,0.206 -0.03,0.414 -0.049,0.62 -0.019,0.206 -0.041,0.416 -0.056,0.622 -0.013,0.181 -0.041,0.363 -0.059,0.544 -0.054,0.529 -0.136,1.052 -0.218,1.577 -0.085,0.055 -0.173,0.11 -0.261,0.163 -0.012,-0.084 -0.063,-0.16 -0.143,-0.201 -0.133,-0.068 -0.297,-0.016 -0.365,0.117 -0.098,0.182 -0.194,0.364 -0.289,0.548 -0.109,0.058 -0.22,0.113 -0.332,0.165 -0.104,0.047 -0.207,0.097 -0.312,0.143 -0.122,0.054 -0.254,0.098 -0.375,0.154 -0.067,0.027 -0.1,0.104 -0.073,0.171 0.027,0.067 0.104,0.1 0.171,0.073 0.232,-0.1 0.463,-0.19 0.694,-0.295 0.006,-0.004 0.013,-0.007 0.02,-0.01 -0.579,1.135 -1.133,2.289 -1.74,3.41 l -0.345,0.599 c -0.41,0.51 -0.848,0.995 -1.284,1.481 -1.604,1.786 -3.386,3.42 -5.049,5.153 -0.696,0.725 -1.382,1.464 -2.033,2.23 -0.277,0.326 -0.54,0.662 -0.813,0.99 -0.138,0.166 -0.27,0.339 -0.398,0.512 -0.076,0.102 -0.158,0.198 -0.226,0.306 -0.075,0.119 -0.096,0.24 -0.06,0.375 0.02,0.076 0.055,0.142 0.1,0.196 -0.179,0.237 -0.353,0.479 -0.523,0.726 -0.005,0.003 -0.01,0.007 -0.015,0.011 -0.259,0.171 -0.528,0.329 -0.785,0.501 -0.406,0.271 -0.849,0.497 -1.272,0.739 -0.029,0.016 -0.04,0.055 -0.024,0.084 0.016,0.029 0.055,0.04 0.084,0.024 0.212,-0.123 0.432,-0.235 0.642,-0.359 0.383,-0.227 0.766,-0.458 1.14,-0.699 0.016,-0.011 0.032,-0.022 0.049,-0.032 -0.059,0.088 -0.117,0.176 -0.174,0.266 -0.497,0.546 -0.982,1.111 -1.446,1.696 -0.061,0.016 -0.115,0.057 -0.144,0.118 -0.034,0.064 -0.067,0.129 -0.099,0.193 -0.407,0.528 -0.824,1.112 -1.157,1.686 -0.455,0.782 -0.89,1.557 -1.214,2.406 -0.028,0.067 0.005,0.146 0.072,0.174 0.067,0.028 0.146,-0.005 0.174,-0.072 0.399,-0.996 0.9,-1.909 1.476,-2.764 -0.143,0.349 -0.272,0.713 -0.394,1.067 -0.298,0.862 -0.563,1.743 -0.75,2.636 -0.033,0.155 -0.065,0.311 -0.097,0.467 -0.118,-0.03 -0.236,-0.051 -0.35,-0.055 -0.193,-0.008 -0.375,0.015 -0.563,0.056 -0.926,0.2 -1.451,0.881 -1.747,1.739 -0.398,1.153 -0.411,2.658 -0.228,3.857 0.083,0.547 0.233,1.182 0.465,1.686 0.093,0.229 0.356,0.338 0.585,0.245 0.229,-0.093 0.338,-0.356 0.245,-0.585 -0.053,-0.108 -0.091,-0.229 -0.133,-0.342 -0.138,-0.368 -0.242,-0.807 -0.308,-1.194 -0.111,-0.644 -0.173,-1.286 -0.144,-1.94 0.011,-0.244 0.026,-0.504 0.071,-0.745 0.038,-0.2 0.081,-0.384 0.127,-0.582 0.107,-0.461 0.509,-1.279 0.962,-1.488 0.334,-0.154 0.44,-0.147 0.782,-0.153 0.046,-0.001 0.094,-0.006 0.142,-0.008 -0.065,0.356 -0.121,0.713 -0.16,1.071 -0.059,0.539 -0.099,1.069 -0.126,1.611 -0.07,1.43 0.078,2.862 0.267,4.277 0.036,0.278 0.294,0.474 0.572,0.438 0.278,-0.036 0.474,-0.294 0.438,-0.572 -0.017,-0.13 -0.034,-0.259 -0.051,-0.387 0.158,-0.109 0.254,-0.298 0.235,-0.501 -0.136,-1.142 -0.14,-2.289 -0.078,-3.435 0.029,-0.533 0.068,-1.049 0.118,-1.58 0.028,-0.294 0.075,-0.603 0.122,-0.895 0.049,-0.304 0.096,-0.623 0.165,-0.923 0.135,-0.589 0.251,-1.182 0.431,-1.76 0.164,-0.529 0.323,-1.057 0.523,-1.574 0.446,-1.151 0.946,-2.234 1.579,-3.296 0.196,-0.331 0.404,-0.663 0.624,-0.99 0.411,-0.401 0.831,-0.796 1.256,-1.188 0.244,-0.152 0.49,-0.299 0.74,-0.44 l 0.015,-0.053 -0.053,-0.015 c -0.126,0.067 -0.25,0.136 -0.373,0.205 0.913,-0.838 1.866,-1.644 2.742,-2.519 0.487,-0.486 0.996,-0.955 1.424,-1.495 0.132,-0.168 0.258,-0.338 0.382,-0.514 1.676,-1.436 3.334,-2.899 4.803,-4.557 0.972,-1.098 1.835,-2.265 2.585,-3.525 0.343,-0.576 0.665,-1.207 0.948,-1.814 0.067,-0.145 0.132,-0.289 0.195,-0.433 0.036,0.017 0.073,0.034 0.108,0.052 0.247,0.122 0.531,0.185 0.792,0.266 0.081,0.025 0.227,0.068 0.309,0.074 0.078,0.005 0.143,0.011 0.212,0.021 -0.03,0.032 -0.06,0.064 -0.09,0.097 -0.038,0.04 -0.035,0.105 0.005,0.143 0.04,0.038 0.105,0.035 0.143,-0.005 0.059,-0.064 0.119,-0.128 0.179,-0.192 0.875,0.163 1.793,0.263 2.679,0.312 0.526,0.029 1.05,0.061 1.577,0.077 -0.239,0.301 -0.472,0.606 -0.698,0.914 -0.049,0.064 -0.038,0.157 0.026,0.206 0.064,0.049 0.157,0.038 0.206,-0.026 0.284,-0.36 0.565,-0.728 0.857,-1.085 1.43,0.021 2.844,-0.022 4.271,-0.12 0.535,-0.037 1.084,-0.079 1.616,-0.149 0.412,-0.054 0.835,-0.096 1.243,-0.17 0.119,-0.022 0.239,-0.044 0.359,-0.065 0.003,0.041 0.019,0.08 0.05,0.112 0.068,0.07 0.182,0.072 0.252,0.004 0.066,-0.069 0.137,-0.139 0.208,-0.209 0.55,-0.105 1.099,-0.229 1.617,-0.423 0.532,-0.2 0.989,-0.388 1.353,-0.83 0.011,-0.014 0.022,-0.028 0.033,-0.043 -0.008,0.197 -0.016,0.394 -0.024,0.591 -0.006,0.166 0.124,0.308 0.29,0.314 0.166,0.006 0.308,-0.124 0.314,-0.29 0.034,-0.822 0.066,-1.644 0.095,-2.465 0.007,-0.031 0.014,-0.062 0.021,-0.092 0.022,-0.114 0.043,-0.227 0.063,-0.34 0.101,-0.079 0.204,-0.157 0.308,-0.233 0.113,-0.088 0.132,-0.253 0.044,-0.366 -0.059,-0.075 -0.151,-0.109 -0.239,-0.098 0.007,-0.084 0.012,-0.169 0.019,-0.251 0.039,-0.462 0.029,-0.896 0.008,-1.355 -0.016,-0.359 -0.069,-0.712 -0.103,-1.067 -0.002,-0.013 -0.003,-0.026 -0.005,-0.041 0.002,-0.059 0.003,-0.119 0.005,-0.179 0.032,-1.305 0.037,-2.612 0.058,-3.917 0.024,-1.488 0.029,-2.978 0.037,-4.466 0.007,-1.198 0.02,-2.397 0.026,-3.595 0.004,-0.871 0.021,-1.742 0.016,-2.613 -0.006,-1.123 -0.003,-2.246 0.007,-3.369 0.012,-1.334 0.017,-2.669 0.047,-4.003 0.008,-0.356 0.016,-0.712 0.026,-1.067 0.02,-0.022 0.04,-0.043 0.061,-0.064 C 73.94,9.871 73.93,9.729 73.838,9.648 73.829,9.64 73.819,9.633 73.809,9.626 73.856,8.04 73.919,6.457 73.997,4.87 74.009,4.615 73.811,4.397 73.556,4.385 73.301,4.373 73.083,4.571 73.071,4.826 73.05,5.253 73.03,5.679 73.011,6.106 72.94,5.99 72.86,5.879 72.77,5.775 c 0.002,-0.206 0.004,-0.411 0.007,-0.616 0,-0.102 -0.083,-0.187 -0.185,-0.187 -0.102,0 -0.187,0.083 -0.187,0.185 C 72.403,5.246 72.402,5.336 72.401,5.425 72.333,5.37 72.264,5.321 72.216,5.302 72.125,5.266 72.034,5.231 71.941,5.199 71.235,4.952 70.537,4.837 69.8,4.734 68.96,4.617 68.078,4.558 67.23,4.526 65.872,4.475 64.516,4.46 63.157,4.452 62.808,4.45 62.458,4.45 62.108,4.448 62.193,4.374 62.279,4.3 62.364,4.226 62.452,4.149 62.462,4.013 62.385,3.925 62.308,3.837 62.172,3.827 62.084,3.904 61.88,4.079 61.68,4.257 61.482,4.439 61.239,4.434 60.992,4.429 60.75,4.431 60.363,4.433 59.974,4.417 59.586,4.406 59.596,4.387 59.604,4.367 59.609,4.347 59.72,4.266 59.831,4.182 59.939,4.094 59.997,4.055 60.012,3.974 59.973,3.916 59.934,3.858 59.853,3.843 59.795,3.882 59.672,3.947 59.561,4.015 59.45,4.087 59.392,4.072 59.327,4.081 59.274,4.117 59.138,4.2 59.008,4.29 58.881,4.385 58.315,4.363 57.745,4.324 57.184,4.27 56.894,4.242 56.56,4.219 56.277,4.161 56.095,4.123 55.865,4.033 55.678,4.07 55.374,4.13 55.3,4.363 55.235,4.624 55.188,4.813 55.126,5.002 55.077,5.192 54.993,5.517 54.93,5.854 54.862,6.184 54.741,6.771 54.662,7.37 54.581,7.963 54.574,8.006 54.568,8.05 54.563,8.095 54.282,7.826 53.994,7.586 53.731,7.385 53.626,7.305 53.522,7.226 53.417,7.149 c 0.06,0.014 0.12,0.028 0.181,0.042 C 53.722,7.223 53.85,7.147 53.882,7.023 53.914,6.899 53.838,6.771 53.714,6.739 53.24,6.597 52.76,6.469 52.284,6.334 52.251,6.324 52.218,6.315 52.186,6.306 51.784,6.052 51.373,5.812 50.947,5.585 50.574,5.386 50.172,5.176 49.78,5.015 49.591,4.937 49.402,4.846 49.209,4.778 48.92,4.676 48.634,4.554 48.342,4.458 48.029,4.355 47.718,4.244 47.405,4.14 46.651,3.889 45.88,3.664 45.115,3.448 44.657,3.319 44.196,3.208 43.735,3.088 42.996,2.895 42.256,2.705 41.515,2.523 41.245,2.409 40.974,2.3 40.7,2.199 40.256,2.035 39.81,1.896 39.354,1.766 38.776,1.601 38.171,1.494 37.578,1.397 37.3,1.351 37.022,1.302 36.742,1.265 36.412,1.221 36.082,1.177 35.752,1.137 35.683,1.118 35.614,1.1 35.546,1.081 35.505,0.969 35.407,0.881 35.282,0.865 35.114,0.849 34.942,0.815 34.774,0.807 34.712,0.804 34.651,0.801 34.59,0.798 34.253,0.691 33.918,0.579 33.585,0.463 33.449,0.414 33.297,0.486 33.248,0.622 Z M 29.23,2.205 C 28.787,2.525 28.35,2.854 27.907,3.173 27.562,3.42 27.217,3.667 26.874,3.915 26.75,3.79 26.62,3.672 26.48,3.559 26.934,3.307 27.385,3.042 27.825,2.788 28.145,2.601 28.468,2.403 28.792,2.221 28.951,2.205 29.111,2.19 29.27,2.175 c -0.013,0.01 -0.027,0.02 -0.04,0.03 z M 26.572,3.036 C 26.423,3.124 26.274,3.211 26.123,3.295 26.046,3.245 25.965,3.196 25.893,3.164 25.771,3.108 25.554,3.045 25.421,3.019 25.231,2.982 25.033,2.931 24.839,2.922 24.772,2.919 24.643,2.894 24.584,2.919 24.582,2.919 24.58,2.92 24.578,2.921 24.55,2.822 24.484,2.739 24.398,2.69 25.515,2.551 26.637,2.433 27.76,2.322 27.361,2.557 26.965,2.8 26.572,3.036 Z M 22.458,3.33 c 0.43,0.038 0.856,0.066 1.287,0.081 0.125,0.004 0.253,-0.002 0.381,-0.002 -0.054,0.056 -0.107,0.112 -0.16,0.17 -0.041,0.041 -0.041,0.109 0,0.15 h 0.15 C 24.218,3.63 24.32,3.532 24.424,3.436 l 0.252,-0.22 0.132,0.04 c 0.065,0.019 0.13,0.04 0.193,0.072 0.132,0.067 0.261,0.12 0.385,0.205 0.038,0.026 0.081,0.058 0.125,0.09 -0.014,0.007 -0.027,0.014 -0.04,0.021 -0.101,-0.049 -0.203,-0.096 -0.305,-0.142 -0.289,-0.13 -0.631,0 -0.761,0.289 -0.055,0.121 -0.064,0.251 -0.034,0.372 -0.029,0.013 -0.058,0.025 -0.087,0.038 -0.098,0.041 -0.144,0.157 -0.103,0.255 0.041,0.098 0.157,0.144 0.255,0.103 0.051,-0.023 0.103,-0.045 0.154,-0.067 0.032,0.023 0.066,0.043 0.104,0.06 0.28,0.12 0.536,0.25 0.776,0.397 -0.192,0.142 -0.383,0.286 -0.564,0.437 -0.706,0.588 -1.374,1.264 -2.007,1.929 -0.049,0.05 -0.047,0.132 0.003,0.181 0.05,0.049 0.132,0.047 0.181,-0.003 0.188,-0.207 0.412,-0.43 0.622,-0.614 0.099,-0.086 0.193,-0.181 0.293,-0.267 0.349,-0.3 0.704,-0.593 1.076,-0.864 0.159,-0.116 0.316,-0.246 0.472,-0.367 0.088,-0.069 0.178,-0.136 0.269,-0.203 0.232,0.169 0.453,0.359 0.673,0.579 0.195,0.196 0.375,0.409 0.514,0.676 -0.609,0.493 -1.218,0.991 -1.839,1.469 -0.169,0.13 -0.323,0.286 -0.494,0.416 -0.172,0.13 -0.366,0.26 -0.529,0.396 -0.302,0.251 -0.591,0.472 -0.908,0.704 -0.047,0.032 -0.059,0.098 -0.027,0.145 0.032,0.047 0.098,0.059 0.145,0.027 0.319,-0.219 0.649,-0.413 0.974,-0.622 0.186,-0.12 0.358,-0.265 0.537,-0.395 0.166,-0.121 0.34,-0.227 0.504,-0.349 0.458,-0.34 0.899,-0.711 1.348,-1.064 0.178,-0.141 0.358,-0.282 0.537,-0.423 0.146,0.243 0.273,0.498 0.38,0.762 0.024,0.5 -0.013,0.991 -0.102,1.498 -0.01,0.051 -0.021,0.102 -0.033,0.153 -0.187,0.151 -0.375,0.301 -0.564,0.448 -0.611,0.471 -1.206,0.917 -1.855,1.336 -0.187,0.121 -0.403,0.254 -0.599,0.359 -0.175,0.094 -0.359,0.18 -0.531,0.279 -0.086,0.044 -0.127,0.141 -0.105,0.231 -0.732,-0.02 -1.464,-0.031 -2.194,-0.038 -0.74,-0.009 -1.485,-0.015 -2.225,-0.003 -1.532,0.024 -3.064,0.11 -4.594,0.189 -0.963,0.05 -1.927,0.124 -2.888,0.199 C 9.775,12.319 7.621,12.542 5.466,12.797 5.365,12.716 5.269,12.629 5.205,12.551 5.033,12.343 4.877,12.141 4.779,11.885 4.755,11.823 4.74,11.755 4.715,11.694 4.691,11.635 4.68,11.557 4.666,11.494 4.585,11.14 4.612,10.679 4.682,10.324 4.758,9.937 4.882,9.551 5.043,9.177 L 5.168,8.907 5.322,8.866 C 5.42,8.818 5.499,8.734 5.537,8.624 5.562,8.534 5.634,8.398 5.677,8.312 5.78,8.107 5.898,7.867 6.026,7.678 6.068,7.614 6.105,7.544 6.143,7.478 6.972,6.744 7.956,6.072 8.925,5.551 9.186,5.409 9.451,5.256 9.719,5.122 9.816,5.095 9.913,5.069 10.011,5.042 10.953,4.844 11.895,4.647 12.835,4.441 13.181,4.364 13.529,4.288 13.879,4.212 15.013,4.009 16.151,3.825 17.293,3.658 18.191,3.526 19.098,3.427 19.994,3.289 20.296,3.242 20.598,3.197 20.9,3.153 c 0.52,0.065 1.039,0.13 1.558,0.177 z M 9.413,4.694 9.411,4.696 9.395,4.699 C 9.401,4.697 9.407,4.695 9.413,4.694 Z M 8.397,4.979 C 8.397,4.941 8.392,4.903 8.383,4.866 8.634,4.827 8.886,4.789 9.137,4.749 L 9.395,4.699 C 9.062,4.792 8.729,4.885 8.397,4.979 Z m 47.75,0.136 0.896,0.126 c 0.171,0.019 0.343,0.036 0.515,0.052 -0.022,0.014 -0.044,0.029 -0.066,0.043 -0.501,0.108 -1.003,0.234 -1.491,0.38 z m 7.147,0.397 C 62.873,5.893 62.457,6.279 62.044,6.67 61.353,7.322 60.667,7.973 59.991,8.635 59.287,8.625 58.583,8.62 57.882,8.629 57.774,8.63 57.666,8.631 57.559,8.633 57.568,8.625 57.577,8.617 57.587,8.609 58.261,8.005 58.916,7.383 59.574,6.762 59.902,6.453 60.227,6.136 60.561,5.833 60.633,5.767 60.705,5.7 60.777,5.634 61.078,5.61 61.378,5.582 61.682,5.567 62.218,5.539 62.756,5.521 63.294,5.512 Z m 3.422,0.066 c 0.648,0.036 1.289,0.085 1.927,0.15 -1.07,0.811 -2.122,1.658 -3.113,2.561 -0.167,0.15 -0.337,0.298 -0.504,0.449 C 64.371,8.73 63.713,8.715 63.06,8.701 63.015,8.7 62.97,8.699 62.924,8.698 63.386,8.3 63.851,7.908 64.32,7.52 64.923,7.02 65.543,6.516 66.173,6.051 66.302,5.953 66.326,5.767 66.228,5.638 66.13,5.509 65.944,5.485 65.815,5.583 65.574,5.755 65.312,5.957 65.085,6.147 64.971,6.243 64.844,6.34 64.725,6.431 64.469,6.626 64.216,6.846 63.968,7.053 63.335,7.581 62.707,8.123 62.091,8.679 61.552,8.666 61.012,8.653 60.472,8.643 61.64,7.571 62.863,6.545 64.06,5.504 c 0.885,-10e-4 1.771,0.023 2.656,0.074 z m -8.68,2.283 c -0.21,0.204 -0.422,0.416 -0.639,0.611 -0.063,0.056 -0.126,0.112 -0.189,0.169 -0.471,0.011 -0.94,0.027 -1.411,0.04 -0.087,0.002 -0.174,0.006 -0.261,0.011 0.039,-0.346 0.08,-0.69 0.127,-1.034 0.232,-0.17 0.459,-0.345 0.681,-0.532 0.116,-0.098 0.239,-0.187 0.351,-0.29 0.316,-0.29 0.634,-0.577 0.953,-0.863 0.846,-0.151 1.705,-0.242 2.56,-0.299 -0.725,0.729 -1.436,1.474 -2.172,2.187 z M 70.949,6.042 c 0.079,0.013 0.158,0.003 0.229,-0.025 l -0.052,-0.016 0.616,0.185 0.245,0.265 c -0.96,0.725 -1.898,1.492 -2.817,2.268 -0.201,0.008 -0.402,0.016 -0.602,0.023 -0.327,0.01 -0.657,0.009 -0.985,0.015 -0.566,0.01 -1.132,-0.006 -1.698,-0.012 0.102,-0.093 0.204,-0.185 0.307,-0.276 0.177,-0.159 0.363,-0.312 0.544,-0.466 0.87,-0.742 1.76,-1.443 2.675,-2.13 0.978,0.076 1.258,0.12 1.538,0.169 z M 56.33,6.624 c -0.168,0.149 -0.327,0.324 -0.498,0.467 -0.008,0.006 -0.016,0.013 -0.025,0.02 0.056,-0.065 0.113,-0.127 0.169,-0.184 0.281,-0.29 0.569,-0.553 0.885,-0.793 0.002,-0.001 0.004,-0.001 0.005,-0.001 -0.179,0.165 -0.357,0.33 -0.536,0.491 z m -0.529,0.128 c 0.02,-0.117 0.04,-0.234 0.062,-0.35 0.136,-0.043 0.273,-0.083 0.411,-0.121 -0.162,0.15 -0.325,0.307 -0.473,0.471 z m 16.566,0.295 c -0.038,1.415 -0.095,2.828 -0.154,4.246 -10e-4,0.012 -0.002,0.025 -0.002,0.038 -0.528,0.701 -1.066,1.396 -1.627,2.071 -0.285,0.343 -0.598,0.681 -0.915,0.995 -0.171,0.169 -0.365,0.367 -0.552,0.516 -0.418,0.334 -0.819,0.655 -1.29,0.916 -0.147,0.081 -0.309,0.147 -0.453,0.228 -0.039,0.018 -0.055,0.066 -0.037,0.105 0.018,0.039 0.066,0.055 0.105,0.037 0.327,-0.168 0.628,-0.322 0.942,-0.522 0.131,-0.084 0.261,-0.186 0.391,-0.274 0.101,-0.068 0.207,-0.159 0.303,-0.236 0.151,-0.122 0.304,-0.242 0.445,-0.376 0.061,-0.058 0.129,-0.108 0.189,-0.167 0.325,-0.322 0.651,-0.632 0.958,-0.973 0.522,-0.581 1.022,-1.182 1.524,-1.781 -0.012,0.533 -0.014,1.066 -0.022,1.6 -0.014,0.828 -0.029,1.655 -0.045,2.481 -0.039,0.257 -0.08,0.511 -0.128,0.762 -0.055,0.29 -0.125,0.629 -0.148,0.92 -0.033,0.408 -0.082,0.817 -0.091,1.227 -0.009,0.394 -0.029,0.788 -0.03,1.182 -0.002,0.563 10e-4,1.125 0.008,1.686 -2.893,2.231 -5.531,4.816 -8.093,7.408 -1.679,1.698 -3.343,3.413 -5.014,5.12 -0.227,0.232 -0.467,0.46 -0.688,0.697 -0.223,0.238 -0.433,0.491 -0.651,0.734 -0.309,0.345 -0.64,0.682 -0.968,1.009 -0.049,0.048 -0.05,0.127 -0.002,0.176 0.048,0.049 0.127,0.05 0.176,0.002 0.679,-0.68 1.437,-1.269 2.11,-1.95 2.065,-2.089 4.124,-4.186 6.228,-6.236 0.822,-0.801 1.661,-1.577 2.497,-2.363 0.375,-0.352 0.764,-0.69 1.146,-1.035 1.061,-0.958 2.157,-1.865 3.271,-2.756 0.013,0.732 0.03,1.463 0.049,2.197 0.008,0.355 0.018,0.711 0.028,1.067 -0.389,0.324 -0.777,0.649 -1.153,0.984 -0.88,0.782 -1.756,1.57 -2.616,2.374 -0.38,0.355 -0.758,0.717 -1.14,1.069 -0.797,0.735 -1.575,1.505 -2.35,2.264 -2.207,2.161 -4.347,4.376 -6.468,6.617 -0.107,0.009 -0.215,0.016 -0.324,0.022 -0.106,0.006 -0.215,0.017 -0.321,0.014 -0.108,-0.003 -0.216,10e-4 -0.324,10e-4 -0.156,0.003 -0.31,-0.006 -0.462,-0.018 -0.121,-0.01 -0.245,-0.015 -0.371,-0.022 -0.144,-0.014 -0.289,-0.036 -0.433,-0.061 0.054,-0.138 0.107,-0.281 0.148,-0.42 0.051,-0.176 0.093,-0.351 0.132,-0.528 0.323,-0.185 0.655,-0.36 0.988,-0.501 0.104,-0.05 0.147,-0.177 0.097,-0.281 -0.05,-0.104 -0.177,-0.147 -0.281,-0.097 -0.248,0.114 -0.485,0.251 -0.718,0.393 0.056,-0.465 0.049,-0.941 0.061,-1.403 -0.156,0.254 -0.284,0.525 -0.43,0.783 -0.203,0.357 -0.399,0.738 -0.567,1.116 -0.037,-0.061 -0.09,-0.113 -0.157,-0.148 -0.06,-0.032 -0.124,-0.048 -0.187,-0.05 -0.008,-0.48 -0.01,-0.96 -0.011,-1.439 0.033,-0.379 0.063,-0.758 0.09,-1.137 0.015,-0.009 0.03,-0.017 0.046,-0.025 0.328,-0.183 0.664,-0.369 0.984,-0.566 0.225,-0.139 0.447,-0.286 0.671,-0.427 0.114,-0.077 0.145,-0.234 0.068,-0.348 -0.077,-0.114 -0.234,-0.145 -0.348,-0.068 -0.136,0.093 -0.268,0.192 -0.402,0.289 1.22,-1.338 2.43,-2.684 3.645,-4.028 1.475,-1.632 2.942,-3.279 4.47,-4.862 0.625,-0.647 1.254,-1.308 1.903,-1.931 0.457,-0.438 0.914,-0.876 1.371,-1.314 1.196,-1.149 2.461,-2.276 3.763,-3.304 0.12,-0.099 0.138,-0.279 0.039,-0.399 -0.099,-0.12 -0.279,-0.138 -0.399,-0.039 -0.918,0.733 -1.803,1.505 -2.669,2.3 -0.549,0.504 -1.096,1.009 -1.622,1.538 -0.998,1.003 -1.973,2.034 -2.924,3.081 -0.793,0.873 -1.568,1.761 -2.349,2.644 -1.399,1.581 -2.765,3.195 -4.179,4.762 -0.625,0.693 -1.253,1.383 -1.884,2.071 -0.015,0.015 -0.024,0.033 -0.03,0.052 -0.04,0.025 -0.08,0.05 -0.12,0.075 0.051,-0.813 0.089,-1.627 0.117,-2.442 0.333,-0.155 0.669,-0.302 1.011,-0.443 0.403,-0.167 0.821,-0.337 1.235,-0.472 0.121,-0.047 0.181,-0.185 0.134,-0.306 -0.047,-0.121 -0.185,-0.181 -0.306,-0.134 -0.294,0.126 -0.594,0.243 -0.884,0.378 -0.365,0.171 -0.725,0.342 -1.087,0.521 -0.025,0.011 -0.049,0.023 -0.073,0.035 0.048,-0.57 0.091,-1.141 0.131,-1.712 0.13,-0.144 0.261,-0.286 0.394,-0.425 0.036,-0.039 0.073,-0.078 0.11,-0.116 0.215,-0.112 0.43,-0.225 0.644,-0.34 0.374,-0.202 0.748,-0.403 1.122,-0.606 0.118,-0.066 0.16,-0.218 0.094,-0.336 -0.066,-0.118 -0.218,-0.16 -0.336,-0.094 -0.159,0.09 -0.316,0.182 -0.472,0.275 0.284,-0.307 0.56,-0.623 0.843,-0.931 0.773,-0.841 1.556,-1.687 2.359,-2.5 0.532,-0.538 1.058,-1.082 1.596,-1.614 0.35,-0.346 0.704,-0.687 1.055,-1.032 1.041,-1.025 2.124,-2.012 3.202,-2.997 1.124,-1.027 2.28,-2.011 3.43,-3.007 0.565,-0.489 1.149,-0.977 1.731,-1.445 0.292,-0.235 0.578,-0.482 0.874,-0.711 0.123,-0.1 0.142,-0.283 0.042,-0.406 -0.1,-0.123 -0.283,-0.142 -0.406,-0.042 -2.479,1.987 -4.859,4.099 -7.155,6.295 -0.907,0.867 -1.788,1.753 -2.678,2.636 -0.644,0.639 -1.28,1.3 -1.904,1.959 -0.911,0.963 -1.824,1.924 -2.714,2.908 -0.202,0.224 -0.407,0.447 -0.607,0.673 -0.224,0.253 -0.437,0.524 -0.651,0.788 -0.174,0.098 -0.348,0.195 -0.521,0.291 0.048,-0.753 0.091,-1.508 0.13,-2.265 0.427,-0.192 0.863,-0.37 1.311,-0.528 0.128,-0.051 0.189,-0.198 0.138,-0.326 -0.051,-0.128 -0.198,-0.189 -0.326,-0.138 -0.201,0.085 -0.397,0.173 -0.592,0.264 0.197,-0.217 0.395,-0.432 0.589,-0.651 0.314,-0.356 0.63,-0.712 0.941,-1.07 1.548,-1.779 3.064,-3.588 4.621,-5.36 0.606,-0.69 1.224,-1.367 1.837,-2.051 0.185,-0.207 0.376,-0.409 0.566,-0.611 0.543,-0.577 1.067,-1.172 1.618,-1.743 1.018,-1.054 2.089,-2.104 3.204,-3.056 0.676,-0.577 1.347,-1.142 2.064,-1.67 C 71.61,10.186 71.632,10.02 71.544,9.905 71.456,9.79 71.29,9.768 71.175,9.856 c -1.633,1.219 -3.152,2.591 -4.58,4.043 -0.762,0.774 -1.519,1.559 -2.24,2.371 -0.652,0.734 -1.273,1.495 -1.904,2.247 -0.847,1.008 -1.676,2.038 -2.503,3.062 -1.124,1.391 -2.274,2.779 -3.454,4.124 -0.297,0.338 -0.602,0.668 -0.899,1.005 -0.016,0.007 -0.032,0.015 -0.047,0.023 0,-0.011 10e-4,-0.022 0.002,-0.033 0.043,-0.898 0.073,-1.797 0.097,-2.696 0.187,-0.066 0.374,-0.131 0.562,-0.193 0.113,-0.037 0.174,-0.16 0.137,-0.273 -0.037,-0.113 -0.16,-0.174 -0.273,-0.137 -0.14,0.04 -0.277,0.083 -0.414,0.129 0.002,-0.099 0.005,-0.199 0.007,-0.298 0.193,-0.24 0.388,-0.479 0.583,-0.716 1.875,-2.286 3.812,-4.488 5.88,-6.602 0.73,-0.746 1.476,-1.475 2.224,-2.202 0.364,-0.354 0.742,-0.694 1.111,-1.043 0.628,-0.594 1.286,-1.165 1.935,-1.736 0.699,-0.616 1.414,-1.224 2.133,-1.823 0.038,-0.001 0.077,-0.002 0.116,-0.003 0.11,-0.003 0.197,-0.098 0.194,-0.208 -0.001,-0.015 -0.003,-0.028 -0.006,-0.042 0.202,-0.167 0.404,-0.334 0.607,-0.499 0.61,-0.502 1.234,-0.988 1.855,-1.477 0.025,0.055 0.048,0.111 0.069,0.168 z M 52.752,8.012 c 0.173,0.127 0.34,0.271 0.509,0.404 0.123,0.097 0.239,0.212 0.356,0.316 0.033,0.03 0.068,0.061 0.103,0.093 C 53.536,8.843 53.351,8.863 53.167,8.883 52.899,8.593 52.63,8.303 52.365,8.011 52.158,7.783 51.957,7.553 51.756,7.322 c 0.336,0.219 0.666,0.447 0.996,0.69 z M 41.459,7.969 41.406,7.986 c -0.492,0.767 -0.98,1.553 -1.445,2.337 -0.27,0.456 -0.521,0.925 -0.792,1.379 -0.486,0.814 -0.985,1.6 -1.518,2.384 -0.28,0.412 -0.563,0.837 -0.865,1.233 -0.167,0.219 -0.329,0.444 -0.497,0.663 -0.197,0.257 -0.413,0.516 -0.619,0.767 -0.555,0.676 -1.178,1.335 -1.801,1.95 -0.899,0.886 -1.853,1.636 -2.867,2.382 -0.067,0.049 -0.083,0.145 -0.034,0.212 0.049,0.067 0.145,0.083 0.212,0.034 0.27,-0.203 0.549,-0.412 0.824,-0.608 0.277,-0.198 0.551,-0.432 0.815,-0.648 0.459,-0.376 0.922,-0.781 1.349,-1.194 1.899,-1.835 3.543,-3.855 4.921,-6.111 0.468,-0.767 0.943,-1.532 1.342,-2.338 0.239,-0.484 0.466,-0.974 0.67,-1.474 0.126,-0.31 0.247,-0.623 0.375,-0.932 z m 9.838,0.492 C 51.05,8.625 50.807,8.78 50.55,8.93 c -0.68,0.397 -1.354,0.739 -1.983,1.223 -0.055,0.04 -0.067,0.12 -0.027,0.175 0.04,0.055 0.12,0.067 0.175,0.027 0.554,-0.433 1.153,-0.721 1.763,-1.057 0.197,-0.109 0.396,-0.219 0.594,-0.325 0.284,-0.151 0.551,-0.352 0.813,-0.538 0.072,-0.051 0.088,-0.153 0.037,-0.225 -0.051,-0.072 -0.153,-0.088 -0.225,-0.037 -0.134,0.094 -0.265,0.198 -0.4,0.288 z m 7.228,0.412 c 0.398,0.006 0.799,0.013 1.198,0.025 -0.37,0.367 -0.736,0.737 -1.098,1.114 -0.893,0.925 -1.735,1.868 -2.547,2.857 -0.119,-0.276 -0.252,-0.544 -0.395,-0.806 -0.005,-0.078 -0.01,-0.157 -0.015,-0.236 -0.009,-0.139 -0.02,-0.277 -0.032,-0.415 0.287,-0.048 0.495,-0.308 0.476,-0.603 -0.009,-0.283 -0.075,-0.564 -0.182,-0.839 0.138,-0.103 0.274,-0.208 0.41,-0.315 0.108,-0.086 0.226,-0.17 0.329,-0.259 0.206,-0.179 0.416,-0.354 0.624,-0.531 0.409,-0.002 0.819,10e-4 1.232,0.008 z m -2.671,0.919 c -0.1,-0.217 -0.225,-0.429 -0.366,-0.634 0.008,-0.085 0.017,-0.17 0.026,-0.254 0.479,-0.02 0.958,-0.032 1.44,-0.037 -0.358,0.318 -0.722,0.634 -1.1,0.925 z M 60.37,8.925 c 0.459,0.022 0.919,0.044 1.38,0.065 -0.372,0.341 -0.739,0.688 -1.098,1.041 -0.908,0.889 -1.783,1.782 -2.652,2.709 -0.265,0.283 -0.521,0.571 -0.777,0.862 -0.14,0.159 -0.283,0.316 -0.414,0.483 -0.091,0.115 -0.182,0.231 -0.271,0.347 -0.041,-0.266 -0.107,-0.535 -0.174,-0.753 -0.037,-0.118 -0.072,-0.234 -0.11,-0.348 0.106,-0.052 0.212,-0.105 0.318,-0.157 0.497,-0.249 0.989,-0.51 1.444,-0.831 0.076,-0.041 0.105,-0.138 0.064,-0.214 -0.041,-0.076 -0.138,-0.105 -0.214,-0.064 -0.493,0.188 -0.897,0.432 -1.36,0.671 -0.037,0.019 -0.074,0.038 -0.111,0.057 0.149,-0.174 0.3,-0.346 0.452,-0.516 0.35,-0.393 0.703,-0.786 1.072,-1.162 0.74,-0.755 1.485,-1.48 2.258,-2.2 0.065,0.003 0.129,0.006 0.193,0.01 z m 3.485,0.153 c 0.256,0.01 0.513,0.023 0.77,0.035 -0.604,0.59 -1.209,1.175 -1.792,1.787 -1.772,1.858 -3.439,3.766 -5.067,5.75 -0.692,0.843 -1.367,1.697 -2.037,2.556 10e-4,-0.091 0.002,-0.182 0.004,-0.272 0.002,-0.283 0.005,-0.566 0.005,-0.85 0.109,-0.042 0.218,-0.083 0.328,-0.122 0.114,-0.041 0.174,-0.169 0.133,-0.283 -0.041,-0.114 -0.169,-0.174 -0.283,-0.133 -0.059,0.018 -0.119,0.037 -0.178,0.057 0,-0.036 0,-0.072 0,-0.108 0.01,-0.278 0.018,-0.556 0.026,-0.834 0.006,-0.24 0.012,-0.479 0.016,-0.718 0.068,-0.08 0.136,-0.159 0.203,-0.237 0.024,0.071 0.051,0.145 0.079,0.207 -0.004,0.051 0.034,0.097 0.085,0.101 0.051,0.004 0.097,-0.034 0.101,-0.085 0.132,-0.261 0.273,-0.474 0.316,-0.765 0.065,-0.031 0.131,-0.062 0.197,-0.092 0.249,-0.117 0.505,-0.225 0.756,-0.338 0.106,-0.047 0.215,-0.086 0.316,-0.144 0.163,-0.093 0.307,-0.207 0.454,-0.323 0.062,-0.025 0.092,-0.097 0.067,-0.159 -0.025,-0.062 -0.097,-0.092 -0.159,-0.067 -0.182,0.02 -0.357,0.04 -0.535,0.085 -0.119,0.029 -0.242,0.081 -0.358,0.133 0.002,-0.003 0.005,-0.006 0.008,-0.008 0.506,-0.549 0.984,-1.126 1.509,-1.659 0.761,-0.772 1.51,-1.535 2.303,-2.277 0.468,-0.439 0.945,-0.868 1.427,-1.291 0.435,0.019 0.871,0.036 1.306,0.054 z m -9.45,0.491 C 54.388,9.785 54.372,10 54.36,10.215 54.114,9.926 53.864,9.641 53.607,9.361 53.514,9.26 53.422,9.16 53.33,9.059 53.522,9.04 53.715,9.022 53.907,9.006 c 0.173,0.173 0.346,0.366 0.498,0.563 z m 12.65,1.039 c -0.771,0.705 -1.523,1.431 -2.269,2.163 -0.373,0.366 -0.747,0.734 -1.11,1.11 -0.67,0.695 -1.355,1.381 -2.005,2.095 -0.634,0.696 -1.275,1.383 -1.899,2.088 -1.402,1.58 -2.781,3.212 -4.099,4.875 0.011,-0.532 0.021,-1.065 0.032,-1.596 0.002,-0.123 0.004,-0.246 0.006,-0.369 0.322,-0.159 0.647,-0.314 0.978,-0.46 0.115,-0.054 0.166,-0.193 0.112,-0.308 -0.054,-0.115 -0.193,-0.166 -0.308,-0.112 -0.26,0.121 -0.518,0.243 -0.776,0.367 0.003,-0.304 0.006,-0.608 0.009,-0.914 0.459,-0.579 0.925,-1.152 1.398,-1.713 0.928,-1.104 1.849,-2.206 2.829,-3.265 1.56,-1.686 3.149,-3.327 4.862,-4.859 0.209,-0.188 0.419,-0.377 0.628,-0.566 0.025,10e-4 0.05,10e-4 0.076,0.002 0.643,0.01 1.29,0.021 1.933,0.016 0.41,-0.004 0.819,-0.014 1.228,-0.027 -0.551,0.477 -1.088,0.982 -1.625,1.473 z m -39.97,-0.301 c -0.084,0.182 -0.237,0.385 -0.356,0.548 -0.164,0.224 -0.386,0.409 -0.602,0.579 -0.263,0.206 -0.536,0.319 -0.833,0.421 -0.313,-0.015 -0.625,-0.027 -0.937,-0.037 0.121,-0.062 0.244,-0.122 0.361,-0.19 0.36,-0.211 0.715,-0.423 1.063,-0.654 0.509,-0.339 1.004,-0.707 1.493,-1.083 -0.059,0.143 -0.131,0.287 -0.189,0.416 z m 25.51,-0.23 c -0.285,0.132 -0.578,0.305 -0.849,0.464 -0.763,0.448 -1.468,0.979 -2.208,1.461 -0.369,0.24 -0.736,0.467 -1.11,0.698 -0.057,0.034 -0.075,0.11 -0.041,0.167 0.034,0.057 0.11,0.075 0.167,0.041 0.196,-0.122 0.395,-0.238 0.592,-0.358 0.624,-0.38 1.232,-0.797 1.85,-1.188 0.409,-0.259 0.838,-0.506 1.271,-0.722 0.249,-0.124 0.536,-0.275 0.8,-0.362 0.096,-0.041 0.139,-0.154 0.098,-0.25 -0.041,-0.096 -0.154,-0.139 -0.25,-0.098 -0.105,0.051 -0.214,0.098 -0.32,0.147 z m -24.739,0.712 c -0.018,0.063 -0.035,0.128 -0.053,0.193 -0.054,0.042 -0.107,0.084 -0.159,0.127 -0.018,0.014 -0.035,0.028 -0.053,0.042 0.112,-0.168 0.214,-0.338 0.305,-0.519 -0.013,0.052 -0.026,0.104 -0.04,0.157 z m -0.472,1.208 c -0.067,-0.006 -0.134,-0.012 -0.2,-0.018 0.113,-0.085 0.227,-0.17 0.341,-0.254 -0.045,0.093 -0.092,0.184 -0.141,0.272 z m -1.788,0.755 c -0.273,0.22 -0.547,0.44 -0.819,0.661 -0.379,0.305 -0.749,0.618 -1.13,0.921 -0.066,0.051 -0.077,0.148 -0.026,0.214 0.051,0.066 0.148,0.077 0.214,0.026 0.321,-0.267 0.671,-0.515 1.003,-0.768 0.409,-0.312 0.806,-0.646 1.212,-0.963 0.178,0.077 0.353,0.161 0.528,0.257 -0.15,0.194 -0.126,0.475 0.06,0.641 0.194,0.173 0.493,0.156 0.666,-0.038 0.019,-0.025 0.039,-0.05 0.06,-0.074 0.026,0.023 0.053,0.047 0.08,0.07 -1.118,0.753 -2.229,1.517 -3.333,2.29 -0.063,0.044 -0.079,0.132 -0.035,0.195 0.044,0.063 0.132,0.079 0.195,0.035 1.008,-0.708 2.033,-1.402 3.064,-2.075 0.029,-0.02 0.059,-0.039 0.089,-0.059 0.029,0.105 0.089,0.201 0.18,0.275 0.239,0.191 0.432,0.354 0.635,0.585 0.13,0.148 0.249,0.309 0.357,0.479 0.024,0.071 0.045,0.142 0.066,0.214 -0.699,0.412 -1.393,0.835 -2.085,1.252 -0.955,0.574 -1.913,1.132 -2.876,1.693 -0.039,0.022 -0.053,0.072 -0.031,0.111 0.022,0.039 0.072,0.053 0.111,0.031 0.78,-0.453 1.566,-0.902 2.351,-1.346 0.462,-0.261 0.919,-0.532 1.383,-0.79 0.406,-0.226 0.811,-0.449 1.217,-0.668 0.07,0.331 0.105,0.675 0.112,1.027 0.006,0.378 -0.035,0.737 -0.074,1.112 -0.01,0.094 -0.024,0.189 -0.041,0.284 -0.698,0.421 -1.391,0.85 -2.082,1.278 -0.384,0.238 -0.779,0.46 -1.165,0.695 -0.212,0.129 -0.414,0.293 -0.621,0.434 -0.377,0.255 -0.746,0.488 -1.142,0.712 -0.022,0.012 -0.031,0.041 -0.019,0.063 0.012,0.022 0.041,0.031 0.063,0.019 0.376,-0.209 0.762,-0.398 1.151,-0.582 0.047,-0.023 0.095,-0.045 0.143,-0.067 v 0.002 c -0.086,0.184 -0.006,0.404 0.178,0.49 0.155,0.064 0.319,0.142 0.481,0.23 -0.383,0.003 -0.768,0.009 -1.155,0.015 -2.284,0.032 -4.574,0.225 -6.839,0.509 -1.092,0.137 -2.19,0.271 -3.278,0.438 -1.429,0.22 -2.857,0.433 -4.285,0.665 -1.034,0.167 -2.067,0.339 -3.099,0.511 -0.426,0.06 -0.852,0.12 -1.278,0.181 C 5.804,23.888 5.809,23.83 5.789,23.776 5.749,23.667 5.627,23.611 5.518,23.651 5.369,23.703 5.235,23.756 5.106,23.812 4.895,23.646 4.693,23.47 4.507,23.269 4.345,23.094 4.201,22.91 4.053,22.723 3.709,22.289 3.425,21.898 3.159,21.41 2.988,21.097 2.838,20.749 2.721,20.383 2.77,20.102 2.849,19.827 2.909,19.55 3.06,18.845 3.291,18.185 3.587,17.528 3.68,17.322 3.792,17.089 3.908,16.896 4.225,16.371 4.551,15.869 4.968,15.435 5.038,15.41 5.105,15.388 5.17,15.369 5.452,15.271 5.601,14.96 5.503,14.678 5.496,14.658 5.488,14.64 5.48,14.622 c 0.696,-0.177 1.396,-0.334 2.107,-0.454 0.874,-0.148 1.749,-0.269 2.624,-0.411 1.308,-0.212 2.618,-0.387 3.937,-0.515 0.685,-0.067 1.382,-0.139 2.068,-0.176 0.727,-0.039 1.452,-0.084 2.179,-0.119 2.111,-0.102 4.25,-0.094 6.358,0.063 0.17,0.011 0.327,-0.073 0.415,-0.207 0.066,0.011 0.135,0.007 0.203,-0.012 0.043,-0.016 0.088,-0.028 0.133,-0.041 0.03,0 0.061,10e-4 0.092,0.002 z m 3.174,0.078 c -0.199,0.128 -0.398,0.257 -0.597,0.386 -0.089,-0.082 -0.18,-0.162 -0.275,-0.238 0.038,-0.054 0.078,-0.108 0.117,-0.162 0.251,0.005 0.504,0.01 0.755,0.014 z M 9.443,13.104 C 8.901,13.207 8.345,13.347 7.808,13.479 7.517,13.55 7.228,13.622 6.939,13.696 6.904,13.589 6.821,13.498 6.708,13.458 6.563,13.413 6.409,13.347 6.258,13.273 c 1.551,-0.178 3.115,-0.316 4.678,-0.416 -0.498,0.074 -0.999,0.152 -1.493,0.247 z m -3.648,0.825 c 0.03,0.014 0.062,0.028 0.094,0.041 -0.418,0.111 -0.836,0.225 -1.254,0.342 -0.087,0.024 -0.152,0.09 -0.178,0.17 -0.086,0.034 -0.169,0.07 -0.25,0.106 0.291,-0.359 0.607,-0.7 0.942,-1.02 0.209,0.138 0.434,0.26 0.646,0.361 z M 3.532,16.51 C 3.331,16.818 3.124,17.124 2.952,17.45 2.835,17.672 2.71,17.895 2.605,18.123 2.557,18.225 2.512,18.327 2.467,18.429 2.499,18.033 2.59,17.65 2.753,17.3 2.81,17.178 2.884,17.056 2.955,16.941 3.21,16.532 3.5,16.274 3.88,15.989 3.895,15.977 3.911,15.965 3.928,15.953 3.782,16.142 3.648,16.331 3.532,16.51 Z m 50.66,1.765 c -0.007,0.002 -0.012,0.005 -0.017,0.008 -0.07,0.035 -0.14,0.071 -0.208,0.107 0.062,-0.101 0.127,-0.201 0.192,-0.302 0.004,0.6 0.01,1.2 0.033,0.187 z m 18.643,2.783 c -0.011,-0.003 -0.022,-0.006 -0.033,-0.008 -0.001,-0.957 -0.002,-1.915 10e-4,-2.873 0.001,-0.011 0.002,-0.023 0.004,-0.046 0.002,0.976 0.014,1.952 0.028,2.927 z M 28.551,19.17 c -0.062,0.288 -0.146,0.627 -0.241,0.905 -0.047,0.137 -0.091,0.275 -0.136,0.413 -0.479,0.29 -0.952,0.59 -1.423,0.893 -0.116,-0.081 -0.234,-0.159 -0.354,-0.231 -0.117,-0.071 -0.246,-0.134 -0.366,-0.201 -0.15,-0.084 -0.327,-0.155 -0.484,-0.229 -0.021,-0.01 -0.042,-0.018 -0.062,-0.023 0.02,-0.011 0.041,-0.022 0.063,-0.032 0.209,-0.108 0.416,-0.243 0.62,-0.362 0.427,-0.248 0.848,-0.505 1.273,-0.757 0.393,-0.234 0.786,-0.465 1.181,-0.694 -0.024,0.106 -0.049,0.212 -0.071,0.318 z m -0.736,2.307 c -0.02,0.053 -0.039,0.106 -0.06,0.159 -0.205,-0.007 -0.41,-0.012 -0.615,-0.015 0.024,-0.015 0.048,-0.03 0.073,-0.044 0.243,-0.149 0.486,-0.296 0.73,-0.443 -0.044,0.115 -0.088,0.228 -0.128,0.343 z m 45.116,5.812 c 0.007,0.932 0.015,1.864 0.019,2.794 -0.02,-1.131 -0.054,-2.266 -0.087,-3.4 -0.009,-0.273 -0.017,-0.545 -0.038,-1.164 0.071,-0.05 0.048,-0.1 0.013,-0.142 -0.006,-0.007 -0.012,-0.014 -0.019,-0.021 -0.005,-0.187 -0.012,-0.374 -0.017,-0.561 0,-0.745 10e-4,-1.488 0.002,-2.23 0,-0.289 -0.001,-0.577 -0.001,-0.865 0.014,-0.011 0.028,-0.022 0.042,-0.033 0.03,1.876 0.07,3.749 0.086,5.622 z m -46.09,-4.813 c 0.09,0.093 0.177,0.19 0.259,0.293 -0.011,0.004 -0.022,0.009 -0.032,0.014 -0.096,0.04 -0.203,0.068 -0.301,0.104 -0.204,0.068 -0.314,0.29 -0.246,0.494 0.051,0.155 0.193,0.256 0.348,0.265 0.047,0.09 0.12,0.168 0.216,0.221 0.1,0.059 0.217,0.106 0.313,0.169 0.068,0.044 0.147,0.1 0.224,0.159 -0.401,0.276 -0.804,0.55 -1.209,0.821 -0.712,0.474 -1.436,0.899 -2.187,1.307 -0.221,0.12 -0.455,0.226 -0.68,0.339 -0.05,0.024 -0.071,0.087 -0.047,0.137 0.024,0.05 0.087,0.071 0.137,0.047 0.211,-0.108 0.428,-0.205 0.638,-0.313 0.198,-0.102 0.392,-0.215 0.59,-0.317 0.188,-0.097 0.371,-0.214 0.556,-0.317 0.486,-0.271 0.969,-0.58 1.438,-0.88 0.326,-0.21 0.652,-0.422 0.979,-0.636 0.003,0.004 0.007,0.008 0.011,0.012 0.031,0.033 0.061,0.067 0.091,0.101 0.025,0.092 0.057,0.182 0.079,0.275 0.093,0.412 0.153,0.802 0.171,1.224 0.005,0.125 0.007,0.253 0.005,0.381 -0.303,0.195 -0.604,0.392 -0.902,0.588 -1.076,0.706 -2.155,1.408 -3.238,2.103 -0.506,0.324 -1.025,0.632 -1.537,0.947 -0.022,0.013 -0.029,0.042 -0.016,0.064 0.013,0.022 0.042,0.029 0.064,0.016 0.455,-0.281 0.915,-0.554 1.372,-0.832 0.733,-0.445 1.453,-0.916 2.184,-1.364 0.689,-0.423 1.375,-0.843 2.066,-1.257 -0.025,0.539 -0.104,1.094 -0.226,1.637 -0.52,0.373 -1.032,0.76 -1.552,1.127 -0.319,0.225 -0.648,0.426 -0.97,0.644 -0.123,0.083 -0.253,0.153 -0.382,0.226 -0.714,0.405 -1.437,0.723 -2.215,0.983 0.329,-0.11 0.659,-0.171 0.986,-0.309 0.305,-0.129 0.608,-0.258 0.91,-0.397 0.187,-0.086 0.368,-0.186 0.555,-0.272 0.155,-0.071 0.305,-0.164 0.456,-0.243 0.321,-0.168 0.656,-0.35 0.963,-0.54 0.367,-0.228 0.74,-0.453 1.111,-0.677 -0.126,0.449 -0.281,0.882 -0.457,1.284 -0.098,0.224 -0.2,0.444 -0.302,0.666 -0.08,0.171 -0.172,0.349 -0.27,0.526 -0.122,0.079 -0.243,0.158 -0.365,0.237 -0.125,-0.094 -0.258,-0.185 -0.397,-0.273 -0.162,-0.105 -0.38,-0.059 -0.485,0.103 -0.105,0.162 -0.059,0.38 0.103,0.485 0.05,0.028 0.102,0.06 0.156,0.095 -0.556,0.368 -1.109,0.739 -1.661,1.111 -0.072,0.047 -0.143,0.095 -0.213,0.141 -0.504,0.046 -1.006,0.089 -1.508,0.133 -1.343,0.116 -2.685,0.245 -4.028,0.358 -0.312,0.026 -0.624,0.05 -0.917,0.072 -2.154,0.05 -4.284,0.115 -6.417,0.226 -0.951,0.049 -1.899,0.128 -2.849,0.192 -0.342,0.023 -0.689,0.058 -1.03,0.091 -0.355,0.034 -0.708,0.07 -1.06,0.108 C 5.963,34.349 5.821,34.315 5.656,34.272 5.618,34.262 5.577,34.259 5.539,34.25 5.307,34.196 5.066,34.107 4.84,34.005 4.867,33.969 4.894,33.934 4.922,33.9 5,33.802 5.089,33.714 5.171,33.62 5.26,33.521 5.253,33.366 5.154,33.277 5.055,33.188 4.9,33.195 4.811,33.294 4.704,33.389 4.595,33.535 4.503,33.647 4.467,33.69 4.433,33.733 4.399,33.776 4.063,33.571 3.686,33.267 3.457,32.997 3.319,32.834 3.176,32.683 3.054,32.505 2.986,32.406 2.921,32.304 2.859,32.201 2.76,31.948 2.676,31.666 2.625,31.425 2.595,31.285 2.574,31.139 2.541,31.002 2.265,29.837 2.371,28.384 2.743,27.252 2.92,26.71 3.181,26.151 3.561,25.69 c 0.058,-0.074 0.125,-0.154 0.195,-0.231 0.071,0.036 0.144,0.07 0.225,0.104 0.138,0.056 0.283,0.091 0.424,0.136 0.185,0.075 0.397,-0.015 0.472,-0.2 0.075,-0.185 -0.015,-0.397 -0.2,-0.472 -0.134,-0.069 -0.254,-0.142 -0.37,-0.219 0.085,-0.072 0.171,-0.14 0.26,-0.204 0.061,-0.008 0.122,-0.017 0.183,-0.025 0.106,0.068 0.212,0.135 0.315,0.209 0.184,0.124 0.437,0.075 0.561,-0.109 0.047,-0.07 0.069,-0.15 0.068,-0.229 0.639,-0.085 1.279,-0.166 1.92,-0.245 3.53,-0.44 7.123,-0.711 10.677,-0.844 0.992,-0.037 1.985,-0.096 2.977,-0.136 0.912,-0.038 1.825,-0.064 2.738,-0.084 -0.093,0.057 -0.186,0.115 -0.279,0.172 -0.122,0.075 -0.238,0.159 -0.358,0.236 -0.2,0.127 -0.402,0.253 -0.605,0.375 -0.071,0.042 -0.095,0.136 -0.053,0.207 0.042,0.071 0.136,0.095 0.207,0.053 0.416,-0.259 0.857,-0.474 1.271,-0.737 0.168,-0.108 0.336,-0.214 0.505,-0.32 0.285,-0.005 0.569,-0.01 0.854,-0.014 0.241,-0.003 0.433,-0.203 0.43,-0.444 -0.001,-0.071 -0.019,-0.138 -0.05,-0.196 0.303,-0.003 0.608,-10e-4 0.913,0.003 z M 3.346,23.395 c 0.212,0.228 0.43,0.411 0.663,0.615 0.058,0.05 0.119,0.104 0.182,0.157 -0.145,0.021 -0.29,0.042 -0.435,0.064 C 3.737,24.233 3.72,24.238 3.704,24.244 3.655,24.238 3.606,24.239 3.558,24.246 3.486,24.176 3.419,24.103 3.364,24.028 3.239,23.859 3.1,23.664 3.012,23.473 2.874,23.174 2.779,22.881 2.716,22.588 c 0.192,0.287 0.407,0.567 0.63,0.807 z m 68.545,4.447 c 0.018,0.525 0.015,1.055 0.038,1.579 0.012,0.303 0.02,0.61 0.024,0.917 -0.016,0.01 -0.032,0.021 -0.046,0.034 -0.467,0.377 -0.911,0.781 -1.366,1.172 -0.904,0.777 -1.796,1.586 -2.675,2.391 -0.846,0.775 -1.679,1.553 -2.506,2.348 -0.214,0.206 -0.417,0.433 -0.62,0.65 -0.392,0.418 -0.78,0.844 -1.157,1.275 -0.005,0.005 -0.01,0.011 -0.015,0.016 -0.387,0.044 -0.773,0.095 -1.16,0.154 -0.313,0.047 -0.64,0.125 -0.951,0.188 -0.476,0.096 -0.951,0.186 -1.428,0.277 -0.538,0.102 -1.076,0.179 -1.621,0.236 1.059,-1.108 2.132,-2.201 3.226,-3.277 0.675,-0.665 1.352,-1.337 2.045,-1.983 1.043,-0.972 2.085,-1.938 3.145,-2.893 1.405,-1.266 2.856,-2.502 4.316,-3.704 0.239,-0.197 0.475,-0.397 0.711,-0.597 0.013,0.406 0.026,0.811 0.04,1.217 z m 0.068,3.777 c 10e-4,0.718 0.006,1.446 -0.02,2.164 -0.006,0.004 -0.011,0.008 -0.016,0.013 -2.045,1.739 -4.121,3.457 -6.097,5.277 -0.411,0.023 -0.822,0.041 -1.231,0.061 -0.449,0.02 -0.9,0.037 -1.352,0.049 0.169,-0.177 0.339,-0.352 0.515,-0.522 0.173,-0.02 0.353,-0.03 0.528,-0.044 0.126,-0.011 0.22,-0.123 0.209,-0.249 -0.011,-0.126 -0.123,-0.22 -0.248,-0.21 0.511,-0.506 1.052,-0.98 1.563,-1.483 0.713,-0.703 1.456,-1.39 2.205,-2.055 0.891,-0.791 1.792,-1.571 2.697,-2.347 0.413,-0.355 0.835,-0.709 1.246,-1.071 0,0.139 0,0.278 0.001,0.417 z m -45.74,0.636 c -0.092,0.241 -0.006,0.522 0.219,0.668 0.017,0.011 0.035,0.021 0.053,0.03 -0.036,0.039 -0.073,0.076 -0.11,0.112 -0.082,-0.049 -0.18,-0.073 -0.281,-0.064 -0.465,0.032 -0.934,0.079 -1.399,0.123 0.323,-0.208 0.645,-0.417 0.967,-0.627 0.156,-0.103 0.313,-0.207 0.47,-0.31 0.027,0.022 0.054,0.045 0.081,0.068 z m 1.167,1.768 c -0.095,0.058 -0.19,0.117 -0.284,0.176 -0.018,-0.017 -0.035,-0.033 -0.053,-0.049 0.106,-0.004 0.19,-0.094 0.189,-0.2 -0.002,-0.108 -0.093,-0.195 -0.201,-0.193 -0.075,-0.006 -0.149,-0.011 -0.224,-0.016 0.109,-0.098 0.216,-0.202 0.319,-0.309 0.099,0.192 0.183,0.389 0.254,0.591 z m 45.521,0.964 -0.022,0.095 -0.027,0.118 0.042,-0.664 0.022,-0.337 c -0.004,0.263 -0.01,0.525 -0.015,0.788 z M 27.574,34.69 c -0.094,-0.11 -0.195,-0.216 -0.303,-0.325 0.028,-0.015 0.055,-0.03 0.083,-0.045 0.036,-0.021 0.073,-0.041 0.109,-0.061 0.042,0.142 0.079,0.286 0.111,0.431 z M 25.39,34.324 c 0.121,0.143 0.333,0.184 0.499,0.086 0.013,0.143 0.08,0.281 0.2,0.38 0.01,0.007 0.02,0.014 0.03,0.022 -1.506,0.942 -3.006,1.895 -4.496,2.864 l 0.036,0.056 c 1.495,-0.983 3.046,-1.916 4.609,-2.804 0.278,0.229 0.537,0.511 0.729,0.806 0.102,0.158 0.184,0.332 0.25,0.518 -0.235,0.14 -0.47,0.28 -0.705,0.419 -0.677,0.396 -1.366,0.789 -2.067,1.142 -0.328,0.165 -0.663,0.308 -0.992,0.467 -0.194,0.094 -0.397,0.198 -0.595,0.281 -0.18,0.075 -0.366,0.139 -0.544,0.215 -0.07,0.025 -0.106,0.105 -0.081,0.175 0.025,0.07 0.105,0.106 0.175,0.081 0.366,-0.146 0.751,-0.256 1.117,-0.401 0.317,-0.126 0.635,-0.292 0.944,-0.438 0.662,-0.312 1.3,-0.688 1.943,-1.036 0.309,-0.168 0.613,-0.343 0.918,-0.518 0.106,0.446 0.148,0.927 0.178,1.375 -0.058,0.288 -0.131,0.576 -0.214,0.855 -0.054,0.178 -0.111,0.359 -0.173,0.539 -0.289,0.178 -0.587,0.345 -0.875,0.523 -0.305,0.188 -0.629,0.36 -0.942,0.536 -0.643,0.363 -1.292,0.714 -1.935,1.077 -0.463,0.262 -0.951,0.521 -1.398,0.809 -0.083,0.049 -0.11,0.158 -0.061,0.241 0.049,0.083 0.158,0.11 0.241,0.061 0.484,-0.305 0.993,-0.58 1.496,-0.853 0.889,-0.482 1.789,-0.943 2.677,-1.424 0.18,-0.098 0.363,-0.197 0.546,-0.298 -0.16,0.389 -0.341,0.758 -0.549,1.125 -0.108,0.19 -0.238,0.364 -0.352,0.549 -0.057,0.082 -0.086,0.175 -0.092,0.268 -0.123,0.071 -0.273,0.14 -0.391,0.196 -0.528,0.246 -1.06,0.415 -1.627,0.517 -1.28,0.348 -2.574,0.377 -3.911,0.521 -0.391,0.042 -0.813,0.115 -1.2,0.189 -0.36,0.069 -0.715,0.125 -1.072,0.212 -0.14,0.034 -0.275,0.081 -0.412,0.128 -0.173,-0.065 -0.347,-0.131 -0.521,-0.199 -0.116,-0.045 -0.248,0.013 -0.293,0.129 -0.017,0.041 -0.02,0.084 -0.011,0.125 -0.173,-0.006 -0.346,-0.012 -0.518,-0.016 -2.028,-0.06 -4.079,-0.07 -6.079,-0.445 C 9.145,43.243 8.357,43.059 7.66,42.815 7.403,42.725 7.148,42.633 6.895,42.54 6.885,42.452 6.847,42.368 6.782,42.301 6.642,42.156 6.505,42.008 6.373,41.855 6.404,41.822 6.43,41.785 6.451,41.743 6.561,41.517 6.468,41.242 6.242,41.132 6.027,41.035 5.837,40.943 5.657,40.836 4.868,39.502 4.348,37.912 4.892,36.401 c 0.082,-0.229 0.191,-0.392 0.316,-0.596 0.135,-0.219 0.379,-0.448 0.577,-0.611 0.013,-0.012 0.026,-0.025 0.038,-0.038 0.106,0.009 0.213,0.017 0.319,0.032 0.196,0.024 0.379,-0.101 0.433,-0.285 1.995,0.015 3.99,0.025 5.986,-0.03 1.079,-0.03 2.159,-0.034 3.236,-0.103 0.515,-0.033 1.033,-0.075 1.548,-0.113 1.244,-0.093 2.488,-0.18 3.732,-0.279 1.294,0.013 2.591,0.039 3.886,-0.026 0.142,-0.008 0.285,-0.017 0.427,-0.028 z m 46.512,0.405 c -0.032,0.46 -0.046,0.941 -0.11,1.397 -0.03,0.214 -0.042,0.449 -0.088,0.659 -0.044,0.198 -0.082,0.406 -0.123,0.606 -0.035,0.172 -0.103,0.336 -0.155,0.502 -0.016,0.048 -0.059,0.135 -0.101,0.207 -0.057,0.06 -0.113,0.121 -0.172,0.183 -0.038,0.021 -0.08,0.042 -0.125,0.066 -0.173,0.088 -0.403,0.134 -0.589,0.187 -0.16,0.046 -0.346,0.078 -0.511,0.108 -0.534,0.096 -1.059,0.162 -1.597,0.227 -0.654,0.078 -1.313,0.131 -1.974,0.172 0.452,-0.397 0.909,-0.785 1.372,-1.168 0.74,-0.612 1.499,-1.198 2.253,-1.793 0.414,-0.326 0.835,-0.645 1.252,-0.967 0.224,-0.175 0.449,-0.351 0.675,-0.524 -0.002,0.046 -0.004,0.092 -0.007,0.138 z m -40.318,1.822 c -0.056,0.234 -0.108,0.47 -0.157,0.708 -0.093,0.071 -0.186,0.141 -0.28,0.211 0.269,-0.912 0.57,-1.814 0.906,-2.703 -0.172,0.592 -0.329,1.19 -0.469,1.784 z M 4.303,35.28 c -0.206,0.339 -0.351,0.622 -0.462,0.982 0.083,-0.452 0.223,-0.892 0.413,-1.3 0.104,-0.012 0.208,-0.025 0.311,-0.038 -0.1,0.117 -0.191,0.237 -0.262,0.356 z m 26.67,4.737 c -0.017,0.122 -0.033,0.245 -0.049,0.368 -0.217,0.188 -0.432,0.378 -0.644,0.572 0.227,-1.106 0.494,-2.2 0.807,-3.28 0.1,-0.073 0.2,-0.147 0.3,-0.221 -0.168,0.848 -0.3,1.709 -0.414,2.561 z M 30.109,38.65 c -0.183,0.691 -0.342,1.401 -0.483,2.102 -0.133,0.658 -0.258,1.317 -0.331,1.984 -0.018,0.155 -0.033,0.31 -0.046,0.464 -0.895,0.674 -1.716,1.456 -2.615,2.119 -1.089,-0.152 -2.214,-0.202 -3.307,-0.281 -0.394,-0.029 -0.8,-0.055 -1.191,-0.098 -0.332,-0.037 -0.66,-0.082 -0.991,-0.123 -0.048,-0.006 -0.096,-0.013 -0.144,-0.027 -0.418,-0.086 -0.832,-0.196 -1.246,-0.299 -0.006,-0.153 -0.08,-0.291 -0.194,-0.382 l -0.066,-0.009 0.2,0.026 c 0.297,0.013 0.6,-0.034 0.896,-0.059 0.491,-0.041 0.989,-0.087 1.478,-0.146 1.326,-0.161 2.686,-0.325 3.904,-0.908 0.465,-0.222 0.813,-0.454 1.21,-0.78 0.216,-0.179 0.407,-0.377 0.573,-0.592 0.383,-0.163 0.767,-0.324 1.155,-0.48 0.086,-0.038 0.125,-0.141 0.087,-0.227 -0.038,-0.086 -0.141,-0.125 -0.227,-0.087 -0.241,0.112 -0.479,0.227 -0.717,0.345 0.362,-0.639 0.543,-1.377 0.561,-2.128 0.258,-0.169 0.513,-0.342 0.768,-0.515 0.326,-0.222 0.645,-0.48 0.954,-0.728 -0.077,0.275 -0.155,0.551 -0.228,0.829 z m 32.617,0.546 c -0.546,0.011 -1.092,0.017 -1.634,0.018 -0.467,0 -0.938,0.008 -1.407,0.009 0.386,-0.042 0.774,-0.108 1.16,-0.156 0.758,-0.097 1.514,-0.221 2.272,-0.324 -0.131,0.15 -0.261,0.301 -0.391,0.453 z m -9.834,1.737 -0.194,0.28 0.725,-1.473 -0.021,0.044 c 0.108,-0.061 0.214,-0.124 0.319,-0.187 -0.266,0.45 -0.54,0.897 -0.829,1.336 z m 1.254,-0.191 c -0.46,0.884 -0.972,1.718 -1.539,2.537 -0.847,1.222 -1.795,2.363 -2.806,3.45 0.146,-0.222 0.288,-0.447 0.423,-0.679 l 0.071,-0.133 0.376,-0.42 c 0.293,-0.332 0.567,-0.684 0.851,-1.024 0.369,-0.443 0.711,-0.938 1.051,-1.404 0.414,-0.567 0.832,-1.167 1.191,-1.769 0.225,-0.378 0.451,-0.752 0.67,-1.133 -0.093,0.195 -0.193,0.39 -0.288,0.575 z m -23.397,1.324 c -0.002,0.014 -0.002,0.022 -0.002,0.031 -0.011,0.145 -0.015,0.298 -0.022,0.444 -0.003,0.051 -0.007,0.103 -0.011,0.156 -0.236,0.167 -0.434,0.374 -0.46,0.69 -0.009,0.048 0.022,0.095 0.07,0.104 0.048,0.009 0.095,-0.022 0.104,-0.07 0.037,-0.229 0.132,-0.37 0.26,-0.479 -0.037,0.294 -0.095,0.596 -0.153,0.871 -0.04,0.191 -0.084,0.383 -0.131,0.573 -0.023,0.095 -0.055,0.195 -0.074,0.29 -0.002,0.009 -0.004,0.018 -0.005,0.027 -0.008,0.002 -0.016,0.005 -0.024,0.008 -0.216,0.068 -0.429,0.15 -0.647,0.213 -0.035,0.009 -0.07,0.019 -0.105,0.029 0.099,-0.579 0.214,-1.156 0.319,-1.733 0.141,-0.082 0.284,-0.162 0.43,-0.238 0.098,-0.059 0.13,-0.187 0.071,-0.285 -0.059,-0.098 -0.187,-0.13 -0.285,-0.071 -0.042,0.025 -0.084,0.051 -0.125,0.077 0.004,-0.024 0.008,-0.049 0.013,-0.073 0.08,-0.487 0.168,-0.971 0.306,-1.441 0.2,-0.189 0.406,-0.372 0.616,-0.553 -0.057,0.477 -0.106,0.955 -0.145,1.43 z m -1.575,2.986 c -0.37,0.093 -0.761,0.173 -1.111,0.209 -0.188,0.019 -0.376,0.049 -0.565,0.067 -0.18,0.017 -0.362,0.03 -0.545,0.039 -0.033,-0.005 -0.066,-0.01 -0.099,-0.015 -0.018,-0.003 -0.035,-0.006 -0.052,-0.008 0.183,-0.125 0.365,-0.251 0.545,-0.38 0.629,-0.453 1.234,-0.915 1.87,-1.336 -0.031,0.476 -0.043,0.948 -0.043,1.424 z m 0.749,0.934 0.006,0.024 0.018,0.028 c -0.004,0.001 -0.008,0.002 -0.011,0.003 z m 0.171,0.113 c -0.008,0.03 -0.016,0.06 -0.024,0.091 l -0.04,-0.028 -0.083,-0.125 c 0.036,-0.009 0.071,-0.019 0.108,-0.028 0.008,0.031 0.022,0.062 0.039,0.09 z m 12.534,5.167 c -0.456,0.209 -0.919,0.51 -1.339,0.786 -0.369,0.242 -0.736,0.494 -1.095,0.751 -0.652,0.467 -1.346,0.874 -2.068,1.219 l 0.03,0.064 c 0.132,-0.067 0.279,-0.116 0.408,-0.186 0.103,-0.056 0.22,-0.097 0.321,-0.155 0.238,-0.137 0.482,-0.259 0.712,-0.412 0.394,-0.263 0.795,-0.519 1.191,-0.779 0.366,-0.24 0.749,-0.528 1.13,-0.737 0.146,-0.08 0.286,-0.17 0.433,-0.248 0.445,-0.236 0.88,-0.45 1.354,-0.624 0.022,-0.007 0.034,-0.033 0.027,-0.055 -0.007,-0.022 -0.033,-0.034 -0.055,-0.027 -0.372,0.12 -0.694,0.24 -1.049,0.403 z m -4.576,8.792 c 0.087,-0.217 0.179,-0.43 0.279,-0.635 0.108,-0.223 0.199,-0.449 0.313,-0.673 0.021,-0.045 0.027,-0.093 0.02,-0.138 0.067,-0.081 0.135,-0.161 0.203,-0.241 -0.294,0.552 -0.566,1.116 -0.815,1.687 z m -12.315,1.801 -0.021,0.23 c -0.059,0.023 -0.11,0.06 -0.15,0.107 z"
           stroke-miterlimit="79.8403193612775"
           id="path3741"
           inkscape:connector-curvature="0"
           style="fill:#000000;fill-rule:evenodd;stroke:none;stroke-width:0.5;stroke-miterlimit:79.84031677;marker-start:none;marker-end:none" />
      </g>
    </g>
  </g>
</svg>
